<svg width="301" height="137" viewBox="0 0 301 137" fill="none" xmlns="http://www.w3.org/2000/svg">
<path d="M81.9382 64V51.3174H83.4763L90.7888 61.8115L89.6989 61.1963H90.4987V51.3174H92.0632V64H90.5251L83.2126 53.541L84.3025 54.1562H83.5027V64H81.9382ZM98.4975 64.167C97.5951 64.167 96.8217 63.9678 96.1771 63.5693C95.5326 63.1709 95.0346 62.6084 94.683 61.8818C94.3373 61.1553 94.1645 60.2969 94.1645 59.3066V59.2979C94.1645 58.3193 94.3373 57.4609 94.683 56.7227C95.0346 55.9844 95.5268 55.4102 96.1596 55C96.7982 54.584 97.5453 54.376 98.4008 54.376C99.2621 54.376 100 54.5752 100.616 54.9736C101.237 55.3662 101.711 55.9199 102.039 56.6348C102.373 57.3438 102.54 58.1699 102.54 59.1133V59.7109H94.9555V58.4893H101.758L101.002 59.6055V58.999C101.002 58.2549 100.891 57.6426 100.668 57.1621C100.446 56.6816 100.138 56.3242 99.7455 56.0898C99.3529 55.8555 98.9018 55.7383 98.392 55.7383C97.8822 55.7383 97.4281 55.8613 97.0297 56.1074C96.6312 56.3535 96.3148 56.7197 96.0805 57.2061C95.8461 57.6924 95.7289 58.29 95.7289 58.999V59.6055C95.7289 60.2793 95.8432 60.8535 96.0717 61.3281C96.3002 61.8027 96.6225 62.1689 97.0385 62.4268C97.4604 62.6787 97.9584 62.8047 98.5326 62.8047C98.9604 62.8047 99.3324 62.7461 99.6488 62.6289C99.9652 62.5117 100.226 62.3623 100.431 62.1807C100.636 61.999 100.78 61.8115 100.862 61.6182L100.897 61.5391H102.426L102.409 61.6094C102.327 61.9375 102.18 62.2539 101.969 62.5586C101.764 62.8574 101.495 63.1299 101.161 63.376C100.832 63.6162 100.446 63.8096 100 63.9561C99.5551 64.0967 99.0541 64.167 98.4975 64.167ZM104.457 64V54.543H105.986V55.958H106.118C106.358 55.46 106.704 55.0732 107.155 54.7979C107.612 54.5166 108.19 54.376 108.887 54.376C109.947 54.376 110.762 54.6807 111.33 55.29C111.904 55.8936 112.191 56.7549 112.191 57.874V64H110.662V58.2432C110.662 57.3877 110.481 56.7549 110.117 56.3447C109.76 55.9346 109.203 55.7295 108.447 55.7295C107.949 55.7295 107.516 55.8379 107.147 56.0547C106.777 56.2715 106.49 56.5791 106.285 56.9775C106.086 57.3701 105.986 57.8447 105.986 58.4014V64H104.457ZM114.574 64V50.79H116.103V55.9668H116.235C116.475 55.4629 116.821 55.0732 117.272 54.7979C117.729 54.5166 118.306 54.376 119.004 54.376C119.707 54.376 120.304 54.5137 120.797 54.7891C121.289 55.0586 121.664 55.457 121.922 55.9844C122.179 56.5059 122.308 57.1416 122.308 57.8916V64H120.779V58.252C120.779 57.3965 120.597 56.7637 120.234 56.3535C119.877 55.9375 119.32 55.7295 118.564 55.7295C118.06 55.7295 117.624 55.8379 117.255 56.0547C116.891 56.2715 116.607 56.5791 116.402 56.9775C116.203 57.376 116.103 57.8506 116.103 58.4014V64H114.574ZM127.776 64.167C127.061 64.167 126.46 64.0322 125.974 63.7627C125.488 63.4873 125.122 63.0889 124.875 62.5674C124.635 62.04 124.515 61.4072 124.515 60.6689V54.543H126.044V60.2998C126.044 61.1436 126.208 61.7734 126.537 62.1895C126.871 62.6055 127.415 62.8135 128.171 62.8135C128.581 62.8135 128.945 62.752 129.261 62.6289C129.583 62.5059 129.853 62.3301 130.07 62.1016C130.287 61.8672 130.448 61.5859 130.553 61.2578C130.664 60.9238 130.72 60.5518 130.72 60.1416V54.543H132.249V64H130.72V62.5938H130.588C130.43 62.9219 130.219 63.2061 129.956 63.4463C129.692 63.6807 129.378 63.8594 129.015 63.9824C128.652 64.1055 128.239 64.167 127.776 64.167ZM134.632 64V54.543H136.161V55.9756H136.293C136.504 55.4717 136.826 55.0791 137.26 54.7979C137.699 54.5166 138.23 54.376 138.851 54.376C139.278 54.376 139.662 54.4463 140.002 54.5869C140.342 54.7275 140.635 54.9238 140.881 55.1758C141.127 55.4219 141.323 55.709 141.47 56.0371H141.602C141.772 55.7031 142 55.4131 142.287 55.167C142.574 54.915 142.905 54.7217 143.28 54.5869C143.661 54.4463 144.068 54.376 144.502 54.376C145.147 54.376 145.692 54.4961 146.137 54.7363C146.588 54.9766 146.931 55.3281 147.165 55.791C147.4 56.248 147.517 56.8047 147.517 57.4609V64H145.987V57.8125C145.987 57.3496 145.914 56.9658 145.768 56.6611C145.627 56.3506 145.41 56.1191 145.117 55.9668C144.824 55.8086 144.455 55.7295 144.01 55.7295C143.57 55.7295 143.187 55.8291 142.859 56.0283C142.536 56.2217 142.284 56.4854 142.103 56.8193C141.921 57.1475 141.83 57.5137 141.83 57.918V64H140.301V57.584C140.301 57.209 140.219 56.8838 140.055 56.6084C139.897 56.3271 139.668 56.1104 139.369 55.958C139.076 55.8057 138.731 55.7295 138.332 55.7295C137.922 55.7295 137.553 55.8379 137.225 56.0547C136.897 56.2656 136.636 56.5557 136.442 56.9248C136.255 57.2881 136.161 57.6924 136.161 58.1377V64H134.632ZM152.413 64.167C151.815 64.167 151.276 64.0527 150.796 63.8242C150.321 63.5957 149.946 63.2705 149.671 62.8486C149.395 62.4268 149.258 61.9287 149.258 61.3545V61.3369C149.258 60.7803 149.392 60.3027 149.662 59.9043C149.931 59.5 150.321 59.1836 150.831 58.9551C151.346 58.7266 151.971 58.5918 152.703 58.5508L156.183 58.3398V59.5615L152.887 59.7725C152.173 59.8135 151.648 59.9629 151.314 60.2207C150.986 60.4785 150.822 60.8389 150.822 61.3018V61.3193C150.822 61.7998 151.001 62.1748 151.358 62.4443C151.721 62.708 152.179 62.8398 152.729 62.8398C153.251 62.8398 153.714 62.7373 154.118 62.5322C154.522 62.3213 154.839 62.0371 155.067 61.6797C155.302 61.3223 155.419 60.918 155.419 60.4668V57.5312C155.419 56.9453 155.24 56.5 154.883 56.1953C154.531 55.8848 154.001 55.7295 153.292 55.7295C152.723 55.7295 152.258 55.832 151.894 56.0371C151.531 56.2363 151.288 56.5234 151.165 56.8984L151.156 56.9248H149.636L149.644 56.8721C149.721 56.374 149.923 55.9375 150.251 55.5625C150.585 55.1875 151.015 54.8975 151.543 54.6924C152.07 54.4814 152.671 54.376 153.345 54.376C154.118 54.376 154.771 54.502 155.304 54.7539C155.838 55.0059 156.245 55.3662 156.526 55.835C156.807 56.3037 156.948 56.8662 156.948 57.5225V64H155.419V62.6025H155.278C155.079 62.9365 154.836 63.2207 154.549 63.4551C154.267 63.6895 153.948 63.8682 153.591 63.9912C153.233 64.1084 152.841 64.167 152.413 64.167ZM166.459 64.167C165.861 64.167 165.322 64.0527 164.842 63.8242C164.367 63.5957 163.992 63.2705 163.717 62.8486C163.442 62.4268 163.304 61.9287 163.304 61.3545V61.3369C163.304 60.7803 163.439 60.3027 163.708 59.9043C163.978 59.5 164.367 59.1836 164.877 58.9551C165.393 58.7266 166.017 58.5918 166.749 58.5508L170.23 58.3398V59.5615L166.934 59.7725C166.219 59.8135 165.694 59.9629 165.361 60.2207C165.032 60.4785 164.868 60.8389 164.868 61.3018V61.3193C164.868 61.7998 165.047 62.1748 165.404 62.4443C165.768 62.708 166.225 62.8398 166.776 62.8398C167.297 62.8398 167.76 62.7373 168.164 62.5322C168.569 62.3213 168.885 62.0371 169.113 61.6797C169.348 61.3223 169.465 60.918 169.465 60.4668V57.5312C169.465 56.9453 169.286 56.5 168.929 56.1953C168.577 55.8848 168.047 55.7295 167.338 55.7295C166.77 55.7295 166.304 55.832 165.941 56.0371C165.577 56.2363 165.334 56.5234 165.211 56.8984L165.202 56.9248H163.682L163.691 56.8721C163.767 56.374 163.969 55.9375 164.297 55.5625C164.631 55.1875 165.062 54.8975 165.589 54.6924C166.116 54.4814 166.717 54.376 167.391 54.376C168.164 54.376 168.818 54.502 169.351 54.7539C169.884 55.0059 170.291 55.3662 170.572 55.835C170.854 56.3037 170.994 56.8662 170.994 57.5225V64H169.465V62.6025H169.324C169.125 62.9365 168.882 63.2207 168.595 63.4551C168.314 63.6895 167.994 63.8682 167.637 63.9912C167.279 64.1084 166.887 64.167 166.459 64.167ZM176.673 64.0791C175.706 64.0791 175.003 63.8828 174.563 63.4902C174.13 63.0918 173.913 62.4443 173.913 61.5479V55.8086H172.428V54.543H173.913V52.0908H175.495V54.543H177.552V55.8086H175.495V61.1787C175.495 61.7295 175.6 62.125 175.811 62.3652C176.022 62.6055 176.371 62.7256 176.857 62.7256C176.992 62.7256 177.106 62.7227 177.2 62.7168C177.3 62.7109 177.417 62.7021 177.552 62.6904V63.9912C177.411 64.0146 177.267 64.0352 177.121 64.0527C176.974 64.0703 176.825 64.0791 176.673 64.0791ZM179.416 64V54.543H180.945V64H179.416ZM180.189 52.7236C179.902 52.7236 179.656 52.6211 179.451 52.416C179.246 52.2051 179.143 51.959 179.143 51.6777C179.143 51.3848 179.246 51.1357 179.451 50.9307C179.656 50.7256 179.902 50.623 180.189 50.623C180.482 50.623 180.731 50.7256 180.936 50.9307C181.141 51.1357 181.244 51.3848 181.244 51.6777C181.244 51.959 181.141 52.2051 180.936 52.416C180.731 52.6211 180.482 52.7236 180.189 52.7236ZM186.034 64L182.536 54.543H184.154L186.746 62.3301H186.878L189.471 54.543H191.088L187.581 64H186.034ZM192.688 64V54.543H194.218V64H192.688ZM193.462 52.7236C193.175 52.7236 192.929 52.6211 192.724 52.416C192.518 52.2051 192.416 51.959 192.416 51.6777C192.416 51.3848 192.518 51.1357 192.724 50.9307C192.929 50.7256 193.175 50.623 193.462 50.623C193.755 50.623 194.004 50.7256 194.209 50.9307C194.414 51.1357 194.516 51.3848 194.516 51.6777C194.516 51.959 194.414 52.2051 194.209 52.416C194.004 52.6211 193.755 52.7236 193.462 52.7236ZM200.125 64.167C199.334 64.167 198.639 63.9648 198.042 63.5605C197.444 63.1562 196.981 62.5879 196.653 61.8555C196.325 61.123 196.161 60.2646 196.161 59.2803V59.2627C196.161 58.2725 196.325 57.4111 196.653 56.6787C196.981 55.9463 197.441 55.3809 198.033 54.9824C198.63 54.5781 199.328 54.376 200.125 54.376C200.558 54.376 200.965 54.4463 201.346 54.5869C201.733 54.7217 202.076 54.9121 202.375 55.1582C202.673 55.4043 202.908 55.6973 203.078 56.0371H203.218V50.79H204.748V64H203.218V62.4883H203.078C202.884 62.8398 202.641 63.1416 202.348 63.3936C202.055 63.6396 201.721 63.8301 201.346 63.9648C200.971 64.0996 200.564 64.167 200.125 64.167ZM200.476 62.8135C201.05 62.8135 201.543 62.6699 201.953 62.3828C202.369 62.0957 202.688 61.6885 202.911 61.1611C203.139 60.6279 203.253 60.001 203.253 59.2803V59.2627C203.253 58.5303 203.139 57.9033 202.911 57.3818C202.688 56.8545 202.369 56.4473 201.953 56.1602C201.543 55.873 201.05 55.7295 200.476 55.7295C199.902 55.7295 199.41 55.873 199 56.1602C198.589 56.4414 198.273 56.8457 198.05 57.373C197.834 57.8945 197.725 58.5244 197.725 59.2627V59.2803C197.725 60.0127 197.834 60.6426 198.05 61.1699C198.273 61.6973 198.589 62.1045 199 62.3916C199.41 62.6729 199.902 62.8135 200.476 62.8135ZM209.811 64.167C209.213 64.167 208.674 64.0527 208.194 63.8242C207.719 63.5957 207.344 63.2705 207.069 62.8486C206.793 62.4268 206.656 61.9287 206.656 61.3545V61.3369C206.656 60.7803 206.79 60.3027 207.06 59.9043C207.329 59.5 207.719 59.1836 208.229 58.9551C208.744 58.7266 209.368 58.5918 210.101 58.5508L213.581 58.3398V59.5615L210.285 59.7725C209.571 59.8135 209.046 59.9629 208.712 60.2207C208.384 60.4785 208.22 60.8389 208.22 61.3018V61.3193C208.22 61.7998 208.399 62.1748 208.756 62.4443C209.119 62.708 209.576 62.8398 210.127 62.8398C210.649 62.8398 211.112 62.7373 211.516 62.5322C211.92 62.3213 212.237 62.0371 212.465 61.6797C212.699 61.3223 212.817 60.918 212.817 60.4668V57.5312C212.817 56.9453 212.638 56.5 212.281 56.1953C211.929 55.8848 211.399 55.7295 210.69 55.7295C210.121 55.7295 209.656 55.832 209.292 56.0371C208.929 56.2363 208.686 56.5234 208.563 56.8984L208.554 56.9248H207.033L207.042 56.8721C207.118 56.374 207.321 55.9375 207.649 55.5625C207.983 55.1875 208.413 54.8975 208.941 54.6924C209.468 54.4814 210.069 54.376 210.742 54.376C211.516 54.376 212.169 54.502 212.702 54.7539C213.236 55.0059 213.643 55.3662 213.924 55.835C214.205 56.3037 214.346 56.8662 214.346 57.5225V64H212.817V62.6025H212.676C212.477 62.9365 212.234 63.2207 211.947 63.4551C211.665 63.6895 211.346 63.8682 210.989 63.9912C210.631 64.1084 210.239 64.167 209.811 64.167ZM220.165 64.167C219.374 64.167 218.68 63.9648 218.082 63.5605C217.484 63.1562 217.021 62.5879 216.693 61.8555C216.365 61.123 216.201 60.2646 216.201 59.2803V59.2627C216.201 58.2725 216.365 57.4111 216.693 56.6787C217.021 55.9463 217.481 55.3809 218.073 54.9824C218.671 54.5781 219.368 54.376 220.165 54.376C220.599 54.376 221.006 54.4463 221.387 54.5869C221.773 54.7217 222.116 54.9121 222.415 55.1582C222.714 55.4043 222.948 55.6973 223.118 56.0371H223.259V50.79H224.788V64H223.259V62.4883H223.118C222.925 62.8398 222.682 63.1416 222.389 63.3936C222.096 63.6396 221.762 63.8301 221.387 63.9648C221.012 64.0996 220.604 64.167 220.165 64.167ZM220.517 62.8135C221.091 62.8135 221.583 62.6699 221.993 62.3828C222.409 62.0957 222.728 61.6885 222.951 61.1611C223.18 60.6279 223.294 60.001 223.294 59.2803V59.2627C223.294 58.5303 223.18 57.9033 222.951 57.3818C222.728 56.8545 222.409 56.4473 221.993 56.1602C221.583 55.873 221.091 55.7295 220.517 55.7295C219.942 55.7295 219.45 55.873 219.04 56.1602C218.63 56.4414 218.313 56.8457 218.091 57.373C217.874 57.8945 217.766 58.5244 217.766 59.2627V59.2803C217.766 60.0127 217.874 60.6426 218.091 61.1699C218.313 61.6973 218.63 62.1045 219.04 62.3916C219.45 62.6729 219.942 62.8135 220.517 62.8135ZM231.108 64.167C230.206 64.167 229.432 63.9678 228.788 63.5693C228.143 63.1709 227.645 62.6084 227.294 61.8818C226.948 61.1553 226.775 60.2969 226.775 59.3066V59.2979C226.775 58.3193 226.948 57.4609 227.294 56.7227C227.645 55.9844 228.137 55.4102 228.77 55C229.409 54.584 230.156 54.376 231.011 54.376C231.873 54.376 232.611 54.5752 233.226 54.9736C233.847 55.3662 234.322 55.9199 234.65 56.6348C234.984 57.3438 235.151 58.1699 235.151 59.1133V59.7109H227.566V58.4893H234.369L233.613 59.6055V58.999C233.613 58.2549 233.502 57.6426 233.279 57.1621C233.056 56.6816 232.749 56.3242 232.356 56.0898C231.963 55.8555 231.512 55.7383 231.003 55.7383C230.493 55.7383 230.039 55.8613 229.64 56.1074C229.242 56.3535 228.925 56.7197 228.691 57.2061C228.457 57.6924 228.339 58.29 228.339 58.999V59.6055C228.339 60.2793 228.454 60.8535 228.682 61.3281C228.911 61.8027 229.233 62.1689 229.649 62.4268C230.071 62.6787 230.569 62.8047 231.143 62.8047C231.571 62.8047 231.943 62.7461 232.259 62.6289C232.576 62.5117 232.837 62.3623 233.042 62.1807C233.247 61.999 233.39 61.8115 233.472 61.6182L233.507 61.5391H235.037L235.019 61.6094C234.937 61.9375 234.791 62.2539 234.58 62.5586C234.375 62.8574 234.105 63.1299 233.771 63.376C233.443 63.6162 233.056 63.8096 232.611 63.9561C232.166 64.0967 231.665 64.167 231.108 64.167ZM106.009 85.1641V72.543H107.538V74.0547H107.67C107.863 73.7031 108.106 73.4043 108.399 73.1582C108.692 72.9062 109.026 72.7129 109.401 72.5781C109.776 72.4434 110.184 72.376 110.623 72.376C111.426 72.376 112.123 72.5781 112.715 72.9824C113.312 73.3867 113.775 73.9551 114.103 74.6875C114.432 75.4199 114.596 76.2783 114.596 77.2627V77.2803C114.596 78.2705 114.432 79.1318 114.103 79.8643C113.775 80.5908 113.312 81.1562 112.715 81.5605C112.123 81.9648 111.426 82.167 110.623 82.167C110.189 82.167 109.779 82.0996 109.393 81.9648C109.012 81.8242 108.672 81.6309 108.373 81.3848C108.08 81.1387 107.846 80.8457 107.67 80.5059H107.538V85.1641H106.009ZM110.271 80.8135C110.851 80.8135 111.347 80.6729 111.757 80.3916C112.167 80.1045 112.48 79.6973 112.697 79.1699C112.92 78.6426 113.031 78.0127 113.031 77.2803V77.2627C113.031 76.5244 112.92 75.8916 112.697 75.3643C112.48 74.8369 112.167 74.4326 111.757 74.1514C111.347 73.8701 110.851 73.7295 110.271 73.7295C109.703 73.7295 109.211 73.873 108.795 74.1602C108.379 74.4473 108.059 74.8545 107.837 75.3818C107.614 75.9033 107.503 76.5303 107.503 77.2627V77.2803C107.503 78.001 107.614 78.6279 107.837 79.1611C108.059 79.6885 108.379 80.0957 108.795 80.3828C109.211 80.6699 109.703 80.8135 110.271 80.8135ZM119.114 82.167C118.516 82.167 117.977 82.0527 117.497 81.8242C117.022 81.5957 116.647 81.2705 116.372 80.8486C116.096 80.4268 115.959 79.9287 115.959 79.3545V79.3369C115.959 78.7803 116.093 78.3027 116.363 77.9043C116.632 77.5 117.022 77.1836 117.532 76.9551C118.047 76.7266 118.671 76.5918 119.404 76.5508L122.884 76.3398V77.5615L119.588 77.7725C118.874 77.8135 118.349 77.9629 118.015 78.2207C117.687 78.4785 117.523 78.8389 117.523 79.3018V79.3193C117.523 79.7998 117.702 80.1748 118.059 80.4443C118.422 80.708 118.879 80.8398 119.43 80.8398C119.952 80.8398 120.415 80.7373 120.819 80.5322C121.223 80.3213 121.54 80.0371 121.768 79.6797C122.003 79.3223 122.12 78.918 122.12 78.4668V75.5312C122.12 74.9453 121.941 74.5 121.584 74.1953C121.232 73.8848 120.702 73.7295 119.993 73.7295C119.424 73.7295 118.959 73.832 118.595 74.0371C118.232 74.2363 117.989 74.5234 117.866 74.8984L117.857 74.9248H116.337L116.345 74.8721C116.421 74.374 116.624 73.9375 116.952 73.5625C117.286 73.1875 117.716 72.8975 118.244 72.6924C118.771 72.4814 119.372 72.376 120.046 72.376C120.819 72.376 121.472 72.502 122.005 72.7539C122.539 73.0059 122.946 73.3662 123.227 73.835C123.508 74.3037 123.649 74.8662 123.649 75.5225V82H122.12V80.6025H121.979C121.78 80.9365 121.537 81.2207 121.25 81.4551C120.968 81.6895 120.649 81.8682 120.292 81.9912C119.934 82.1084 119.542 82.167 119.114 82.167ZM125.979 82V72.543H127.508V73.9492H127.64C127.822 73.4512 128.126 73.0645 128.554 72.7891C128.988 72.5137 129.521 72.376 130.154 72.376C130.3 72.376 130.444 72.3848 130.584 72.4023C130.731 72.4141 130.839 72.4258 130.909 72.4375V73.9229C130.757 73.8936 130.605 73.873 130.452 73.8613C130.306 73.8438 130.148 73.835 129.978 73.835C129.497 73.835 129.07 73.9316 128.695 74.125C128.325 74.3125 128.035 74.5791 127.824 74.9248C127.614 75.2705 127.508 75.6748 127.508 76.1377V82H125.979ZM134.953 82.167C134.355 82.167 133.816 82.0527 133.336 81.8242C132.861 81.5957 132.486 81.2705 132.211 80.8486C131.936 80.4268 131.798 79.9287 131.798 79.3545V79.3369C131.798 78.7803 131.933 78.3027 132.202 77.9043C132.472 77.5 132.861 77.1836 133.371 76.9551C133.887 76.7266 134.511 76.5918 135.243 76.5508L138.724 76.3398V77.5615L135.428 77.7725C134.713 77.8135 134.188 77.9629 133.854 78.2207C133.526 78.4785 133.362 78.8389 133.362 79.3018V79.3193C133.362 79.7998 133.541 80.1748 133.898 80.4443C134.262 80.708 134.719 80.8398 135.269 80.8398C135.791 80.8398 136.254 80.7373 136.658 80.5322C137.062 80.3213 137.379 80.0371 137.607 79.6797C137.842 79.3223 137.959 78.918 137.959 78.4668V75.5312C137.959 74.9453 137.78 74.5 137.423 74.1953C137.071 73.8848 136.541 73.7295 135.832 73.7295C135.264 73.7295 134.798 73.832 134.435 74.0371C134.071 74.2363 133.828 74.5234 133.705 74.8984L133.696 74.9248H132.176L132.185 74.8721C132.261 74.374 132.463 73.9375 132.791 73.5625C133.125 73.1875 133.556 72.8975 134.083 72.6924C134.61 72.4814 135.211 72.376 135.885 72.376C136.658 72.376 137.311 72.502 137.845 72.7539C138.378 73.0059 138.785 73.3662 139.066 73.835C139.348 74.3037 139.488 74.8662 139.488 75.5225V82H137.959V80.6025H137.818C137.619 80.9365 137.376 81.2207 137.089 81.4551C136.808 81.6895 136.488 81.8682 136.131 81.9912C135.773 82.1084 135.381 82.167 134.953 82.167ZM150.256 82.167C149.354 82.167 148.58 81.9678 147.936 81.5693C147.291 81.1709 146.793 80.6084 146.442 79.8818C146.096 79.1553 145.923 78.2969 145.923 77.3066V77.2979C145.923 76.3193 146.096 75.4609 146.442 74.7227C146.793 73.9844 147.285 73.4102 147.918 73C148.557 72.584 149.304 72.376 150.159 72.376C151.021 72.376 151.759 72.5752 152.374 72.9736C152.995 73.3662 153.47 73.9199 153.798 74.6348C154.132 75.3438 154.299 76.1699 154.299 77.1133V77.7109H146.714V76.4893H153.517L152.761 77.6055V76.999C152.761 76.2549 152.65 75.6426 152.427 75.1621C152.204 74.6816 151.897 74.3242 151.504 74.0898C151.112 73.8555 150.66 73.7383 150.151 73.7383C149.641 73.7383 149.187 73.8613 148.788 74.1074C148.39 74.3535 148.074 74.7197 147.839 75.2061C147.605 75.6924 147.488 76.29 147.488 76.999V77.6055C147.488 78.2793 147.602 78.8535 147.83 79.3281C148.059 79.8027 148.381 80.1689 148.797 80.4268C149.219 80.6787 149.717 80.8047 150.291 80.8047C150.719 80.8047 151.091 80.7461 151.408 80.6289C151.724 80.5117 151.985 80.3623 152.19 80.1807C152.395 79.999 152.538 79.8115 152.62 79.6182L152.656 79.5391H154.185L154.167 79.6094C154.085 79.9375 153.939 80.2539 153.728 80.5586C153.523 80.8574 153.253 81.1299 152.919 81.376C152.591 81.6162 152.204 81.8096 151.759 81.9561C151.314 82.0967 150.813 82.167 150.256 82.167ZM159.468 82.167C158.765 82.167 158.144 82.0615 157.604 81.8506C157.065 81.6338 156.632 81.332 156.304 80.9453C155.981 80.5527 155.791 80.0957 155.732 79.5742H157.297C157.426 79.9727 157.675 80.292 158.044 80.5322C158.419 80.7725 158.911 80.8926 159.521 80.8926C159.942 80.8926 160.314 80.8311 160.637 80.708C160.965 80.5791 161.22 80.4062 161.401 80.1895C161.589 79.9727 161.683 79.7207 161.683 79.4336V79.416C161.683 79.0938 161.554 78.8213 161.296 78.5986C161.044 78.3701 160.628 78.1855 160.048 78.0449L158.58 77.6934C157.988 77.5527 157.502 77.3711 157.121 77.1484C156.74 76.9199 156.459 76.6416 156.277 76.3135C156.096 75.9795 156.005 75.5869 156.005 75.1357V75.127C156.005 74.5996 156.157 74.1279 156.462 73.7119C156.772 73.2959 157.191 72.9707 157.719 72.7363C158.252 72.4961 158.853 72.376 159.521 72.376C160.183 72.376 160.769 72.4814 161.278 72.6924C161.794 72.8975 162.207 73.1934 162.518 73.5801C162.834 73.9609 163.024 74.4062 163.089 74.916V74.9248H161.595H161.586C161.492 74.5439 161.267 74.2363 160.909 74.002C160.552 73.7676 160.086 73.6504 159.512 73.6504C159.137 73.6504 158.803 73.7119 158.51 73.835C158.223 73.9521 157.994 74.1162 157.824 74.3271C157.654 74.5322 157.569 74.7754 157.569 75.0566V75.0742C157.569 75.2852 157.625 75.4727 157.736 75.6367C157.848 75.8008 158.018 75.9443 158.246 76.0674C158.48 76.1904 158.782 76.2988 159.151 76.3926L160.61 76.7441C161.501 76.9609 162.163 77.2715 162.597 77.6758C163.03 78.0801 163.247 78.6221 163.247 79.3018V79.3193C163.247 79.876 163.08 80.3711 162.746 80.8047C162.418 81.2324 161.967 81.5664 161.393 81.8066C160.824 82.0469 160.183 82.167 159.468 82.167ZM168.249 82.167C167.546 82.167 166.924 82.0615 166.385 81.8506C165.846 81.6338 165.413 81.332 165.085 80.9453C164.762 80.5527 164.572 80.0957 164.513 79.5742H166.078C166.207 79.9727 166.456 80.292 166.825 80.5322C167.2 80.7725 167.692 80.8926 168.301 80.8926C168.723 80.8926 169.095 80.8311 169.418 80.708C169.746 80.5791 170.001 80.4062 170.182 80.1895C170.37 79.9727 170.464 79.7207 170.464 79.4336V79.416C170.464 79.0938 170.335 78.8213 170.077 78.5986C169.825 78.3701 169.409 78.1855 168.829 78.0449L167.361 77.6934C166.769 77.5527 166.283 77.3711 165.902 77.1484C165.521 76.9199 165.24 76.6416 165.058 76.3135C164.877 75.9795 164.786 75.5869 164.786 75.1357V75.127C164.786 74.5996 164.938 74.1279 165.243 73.7119C165.553 73.2959 165.972 72.9707 166.5 72.7363C167.033 72.4961 167.633 72.376 168.301 72.376C168.964 72.376 169.549 72.4814 170.059 72.6924C170.575 72.8975 170.988 73.1934 171.299 73.5801C171.615 73.9609 171.805 74.4062 171.87 74.916V74.9248H170.376H170.367C170.273 74.5439 170.048 74.2363 169.69 74.002C169.333 73.7676 168.867 73.6504 168.293 73.6504C167.918 73.6504 167.584 73.7119 167.291 73.835C167.004 73.9521 166.775 74.1162 166.605 74.3271C166.435 74.5322 166.35 74.7754 166.35 75.0566V75.0742C166.35 75.2852 166.406 75.4727 166.517 75.6367C166.629 75.8008 166.799 75.9443 167.027 76.0674C167.261 76.1904 167.563 76.2988 167.932 76.3926L169.391 76.7441C170.282 76.9609 170.944 77.2715 171.378 77.6758C171.811 78.0801 172.028 78.6221 172.028 79.3018V79.3193C172.028 79.876 171.861 80.3711 171.527 80.8047C171.199 81.2324 170.748 81.5664 170.174 81.8066C169.605 82.0469 168.964 82.167 168.249 82.167ZM177.812 82.167C176.91 82.167 176.136 81.9678 175.492 81.5693C174.847 81.1709 174.349 80.6084 173.997 79.8818C173.652 79.1553 173.479 78.2969 173.479 77.3066V77.2979C173.479 76.3193 173.652 75.4609 173.997 74.7227C174.349 73.9844 174.841 73.4102 175.474 73C176.113 72.584 176.86 72.376 177.715 72.376C178.577 72.376 179.315 72.5752 179.93 72.9736C180.551 73.3662 181.026 73.9199 181.354 74.6348C181.688 75.3438 181.855 76.1699 181.855 77.1133V77.7109H174.27V76.4893H181.073L180.317 77.6055V76.999C180.317 76.2549 180.205 75.6426 179.983 75.1621C179.76 74.6816 179.452 74.3242 179.06 74.0898C178.667 73.8555 178.216 73.7383 177.706 73.7383C177.197 73.7383 176.743 73.8613 176.344 74.1074C175.946 74.3535 175.629 74.7197 175.395 75.2061C175.161 75.6924 175.043 76.29 175.043 76.999V77.6055C175.043 78.2793 175.158 78.8535 175.386 79.3281C175.615 79.8027 175.937 80.1689 176.353 80.4268C176.775 80.6787 177.273 80.8047 177.847 80.8047C178.275 80.8047 178.647 80.7461 178.963 80.6289C179.28 80.5117 179.54 80.3623 179.745 80.1807C179.951 79.999 180.094 79.8115 180.176 79.6182L180.211 79.5391H181.741L181.723 79.6094C181.641 79.9375 181.494 80.2539 181.284 80.5586C181.078 80.8574 180.809 81.1299 180.475 81.376C180.147 81.6162 179.76 81.8096 179.315 81.9561C178.869 82.0967 178.369 82.167 177.812 82.167ZM191.841 82.167C191.05 82.167 190.355 81.9648 189.758 81.5605C189.16 81.1562 188.697 80.5879 188.369 79.8555C188.041 79.123 187.877 78.2646 187.877 77.2803V77.2627C187.877 76.2725 188.041 75.4111 188.369 74.6787C188.697 73.9463 189.157 73.3809 189.749 72.9824C190.346 72.5781 191.044 72.376 191.841 72.376C192.274 72.376 192.681 72.4463 193.062 72.5869C193.449 72.7217 193.792 72.9121 194.091 73.1582C194.389 73.4043 194.624 73.6973 194.794 74.0371H194.934V68.79H196.464V82H194.934V80.4883H194.794C194.6 80.8398 194.357 81.1416 194.064 81.3936C193.771 81.6396 193.437 81.8301 193.062 81.9648C192.687 82.0996 192.28 82.167 191.841 82.167ZM192.192 80.8135C192.766 80.8135 193.259 80.6699 193.669 80.3828C194.085 80.0957 194.404 79.6885 194.627 79.1611C194.855 78.6279 194.969 78.001 194.969 77.2803V77.2627C194.969 76.5303 194.855 75.9033 194.627 75.3818C194.404 74.8545 194.085 74.4473 193.669 74.1602C193.259 73.873 192.766 73.7295 192.192 73.7295C191.618 73.7295 191.126 73.873 190.716 74.1602C190.305 74.4414 189.989 74.8457 189.766 75.373C189.55 75.8945 189.441 76.5244 189.441 77.2627V77.2803C189.441 78.0127 189.55 78.6426 189.766 79.1699C189.989 79.6973 190.305 80.1045 190.716 80.3916C191.126 80.6729 191.618 80.8135 192.192 80.8135ZM198.96 82V72.543H200.49V82H198.96ZM199.734 70.7236C199.447 70.7236 199.201 70.6211 198.996 70.416C198.79 70.2051 198.688 69.959 198.688 69.6777C198.688 69.3848 198.79 69.1357 198.996 68.9307C199.201 68.7256 199.447 68.623 199.734 68.623C200.027 68.623 200.276 68.7256 200.481 68.9307C200.686 69.1357 200.788 69.3848 200.788 69.6777C200.788 69.959 200.686 70.2051 200.481 70.416C200.276 70.6211 200.027 70.7236 199.734 70.7236ZM205.509 82.167C204.911 82.167 204.372 82.0527 203.892 81.8242C203.417 81.5957 203.042 81.2705 202.767 80.8486C202.491 80.4268 202.354 79.9287 202.354 79.3545V79.3369C202.354 78.7803 202.488 78.3027 202.758 77.9043C203.027 77.5 203.417 77.1836 203.927 76.9551C204.442 76.7266 205.066 76.5918 205.799 76.5508L209.279 76.3398V77.5615L205.983 77.7725C205.269 77.8135 204.744 77.9629 204.41 78.2207C204.082 78.4785 203.918 78.8389 203.918 79.3018V79.3193C203.918 79.7998 204.097 80.1748 204.454 80.4443C204.817 80.708 205.274 80.8398 205.825 80.8398C206.347 80.8398 206.81 80.7373 207.214 80.5322C207.618 80.3213 207.935 80.0371 208.163 79.6797C208.398 79.3223 208.515 78.918 208.515 78.4668V75.5312C208.515 74.9453 208.336 74.5 207.979 74.1953C207.627 73.8848 207.097 73.7295 206.388 73.7295C205.819 73.7295 205.354 73.832 204.99 74.0371C204.627 74.2363 204.384 74.5234 204.261 74.8984L204.252 74.9248H202.732L202.74 74.8721C202.816 74.374 203.019 73.9375 203.347 73.5625C203.681 73.1875 204.111 72.8975 204.639 72.6924C205.166 72.4814 205.767 72.376 206.441 72.376C207.214 72.376 207.867 72.502 208.4 72.7539C208.934 73.0059 209.341 73.3662 209.622 73.835C209.903 74.3037 210.044 74.8662 210.044 75.5225V82H208.515V80.6025H208.374C208.175 80.9365 207.932 81.2207 207.645 81.4551C207.363 81.6895 207.044 81.8682 206.687 81.9912C206.329 82.1084 205.937 82.167 205.509 82.167Z" fill="#070907" fill-opacity="0.6"/>
<path d="M266.137 33.0398L269.734 30.5875L289.447 34.3169C289.856 34.3944 290.18 34.6147 290.419 34.9779C290.659 35.3309 290.741 35.7121 290.664 36.1215C290.584 36.5411 290.369 36.8662 290.018 37.0966C289.665 37.3372 289.284 37.4189 288.874 37.3414L266.137 33.0398ZM264.688 31.2866L260.702 32.0115C260.462 32.0508 260.267 31.9609 260.117 31.7418C259.978 31.5247 259.972 31.3061 260.098 31.0862L262.285 27.763L282.822 13.7742L285.209 17.295L264.688 31.2866ZM286.956 16.1307L284.538 12.6041L286.507 11.2751C286.992 10.9534 287.457 10.8188 287.903 10.8713C288.349 10.9239 288.726 11.1702 289.035 11.6103L289.518 12.3377C289.825 12.7881 289.928 13.2262 289.826 13.6522C289.724 14.0782 289.424 14.4614 288.925 14.8016L286.956 16.1307Z" fill="#070907" fill-opacity="0.6"/>
<path d="M33.8512 35.0859C33.2419 35.3815 32.5742 35.6009 31.8479 35.7442C31.1267 35.8736 30.2976 35.9442 29.3606 35.9559L12.3847 36.0792C11.7737 36.0998 11.2391 35.964 10.7811 35.6719C10.3281 35.3659 9.99152 34.9769 9.7714 34.5049C9.55129 34.0329 9.47183 33.5297 9.53303 32.9955C9.60367 32.4568 9.84106 31.9553 10.2452 31.491L21.2516 18.5661C21.8672 17.8652 22.4586 17.2849 23.0258 16.825C23.5979 16.3513 24.193 15.9761 24.8111 15.6994C25.4203 15.4038 26.0903 15.1891 26.8209 15.0553C27.5472 14.912 28.3766 14.8298 29.3092 14.8087L46.2851 14.6854C46.9006 14.6742 47.4326 14.8169 47.8812 15.1134C48.3392 15.4056 48.6783 15.7876 48.8984 16.2597C49.1185 16.7317 49.1955 17.2418 49.1292 17.7899C49.068 18.3241 48.8332 18.8187 48.4246 19.2735L37.4182 32.1985C36.807 32.9088 36.2153 33.5008 35.6431 33.9745C35.0665 34.4387 34.4692 34.8092 33.8512 35.0859ZM32.5767 32.3528C33.0299 32.1415 33.4591 31.8666 33.8645 31.5282C34.2749 31.1759 34.7158 30.7289 35.1873 30.1873L45.1522 18.541C45.3209 18.3359 45.3612 18.139 45.2732 17.9502C45.1895 17.7708 45.0149 17.6798 44.7494 17.6772L29.4226 17.8247C28.7001 17.8282 28.0743 17.8787 27.545 17.9761C27.0252 18.0691 26.5387 18.2212 26.0856 18.4325C25.6324 18.6438 25.2031 18.9187 24.7978 19.2571C24.3924 19.5956 23.9562 20.0404 23.4891 20.5915L13.5242 32.2377C13.3555 32.4428 13.313 32.6351 13.3966 32.8144C13.4847 33.0032 13.6615 33.0989 13.927 33.1015L29.2539 32.9541C29.9719 32.9411 30.593 32.8928 31.1172 32.8093C31.6371 32.7163 32.1236 32.5641 32.5767 32.3528ZM20.243 42.4314L16.7894 35.0252L19.4942 33.7639L22.9478 41.1702C23.2824 41.8877 23.8703 42.4583 24.7115 42.8821C25.5578 43.292 26.5976 43.5254 27.831 43.5824C29.06 43.63 30.4389 43.4813 31.9675 43.1362C33.5006 42.8006 35.1168 42.2366 36.8161 41.4442C38.5249 40.6474 39.9958 39.7719 41.2288 38.8176C42.4758 37.8684 43.476 36.9077 44.2295 35.9357C44.9881 34.9498 45.4777 34.0032 45.6982 33.0958C45.9238 32.1746 45.8693 31.3552 45.5347 30.6377L42.0811 23.2315L44.7859 21.9703L48.2394 29.3765C48.7633 30.4999 48.9143 31.711 48.6924 33.0098C48.4756 34.2948 47.9205 35.5938 47.0271 36.9069C46.1381 38.2294 44.9314 39.499 43.4069 40.7156C41.8824 41.9322 40.0817 43.0247 38.0047 43.9932C35.9278 44.9617 33.9333 45.6389 32.0214 46.0247C30.1189 46.4061 28.3707 46.5145 26.7768 46.3498C25.1967 46.1901 23.8448 45.7803 22.721 45.1205C21.5929 44.4512 20.7669 43.5549 20.243 42.4314ZM30.2089 27.1642C29.6803 27.4108 29.1352 27.573 28.5739 27.6508C28.0176 27.7149 27.522 27.6873 27.0872 27.5683C26.6574 27.4354 26.3611 27.1943 26.1982 26.8449C26.0398 26.5051 26.0499 26.1325 26.2288 25.7273C26.417 25.3177 26.7167 24.9251 27.1277 24.5496C27.5482 24.1696 28.0228 23.8563 28.5515 23.6098C29.0896 23.3589 29.6346 23.1967 30.1865 23.1232C30.7479 23.0454 31.2412 23.0682 31.6666 23.1916C32.092 23.3151 32.3839 23.5468 32.5424 23.8866C32.7053 24.2359 32.6995 24.6179 32.5251 25.0326C32.3462 25.4378 32.0535 25.8329 31.6468 26.2179C31.2358 26.5935 30.7565 26.9089 30.2089 27.1642ZM23.5718 34.4486L20.9751 34.3147L27.8817 25.3531L29.5823 26.5599L23.5718 34.4486ZM27.9417 49.2546L21.0015 34.3713L23.5718 34.4486L30.03 48.2981L27.9417 49.2546ZM26.854 50.1756C26.5767 49.5808 26.5315 49.0157 26.7186 48.4802C26.9195 47.9498 27.322 47.5437 27.9262 47.262L28.4927 46.9978C29.0874 46.7205 29.6478 46.6775 30.1739 46.869C30.7137 47.0655 31.1224 47.4611 31.3997 48.0559L33.1694 51.851C33.4512 52.4553 33.4916 53.0226 33.2907 53.553C33.1036 54.0885 32.7127 54.4949 32.1179 54.7722L31.5515 55.0364C30.9473 55.3181 30.3753 55.3607 29.8354 55.1642C29.3093 54.9728 28.9055 54.5749 28.6237 53.9707L26.854 50.1756Z" fill="#070907" fill-opacity="0.6"/>
<path d="M262.782 129.78C261.157 130.236 259.813 130.17 258.75 129.582C257.686 128.993 256.929 127.897 256.478 126.293L251.33 107.971C250.879 106.366 250.954 105.036 251.555 103.98C252.154 102.914 253.265 102.152 254.89 101.696L280.642 94.459C282.277 93.9997 283.627 94.0693 284.694 94.6677C285.757 95.2561 286.514 96.3526 286.965 97.9571L292.114 116.279C292.564 117.883 292.489 119.214 291.888 120.27C291.287 121.326 290.169 122.084 288.534 122.543L262.782 129.78ZM262.134 126.781L287.54 119.641C288.232 119.447 288.713 119.117 288.983 118.652C289.249 118.176 289.281 117.578 289.078 116.856L284.074 99.0456C283.871 98.3235 283.533 97.8341 283.061 97.5774C282.585 97.3106 282.002 97.2744 281.31 97.4689L255.903 104.608C255.201 104.806 254.717 105.142 254.45 105.617C254.19 106.08 254.162 106.672 254.365 107.394L259.37 125.204C259.573 125.926 259.907 126.422 260.372 126.692C260.844 126.948 261.432 126.978 262.134 126.781ZM265.032 126.989C264.981 125.921 265.137 124.876 265.499 123.855C265.871 122.831 266.418 121.887 267.138 121.025C267.866 120.149 268.739 119.385 269.756 118.731C270.773 118.077 271.909 117.574 273.162 117.222C274.426 116.867 275.662 116.704 276.871 116.732C278.08 116.76 279.218 116.959 280.285 117.33C281.35 117.691 282.302 118.213 283.144 118.897C283.985 119.58 284.667 120.389 285.189 121.325L265.032 126.989ZM272.482 114.8C271.516 115.061 270.578 115.054 269.668 114.779C268.758 114.505 267.959 114.01 267.271 113.294C266.583 112.579 266.083 111.686 265.771 110.616C265.492 109.623 265.461 108.647 265.679 107.688C265.896 106.729 266.326 105.889 266.967 105.167C267.608 104.446 268.405 103.952 269.358 103.684C270.311 103.416 271.243 103.425 272.156 103.709C273.08 103.991 273.884 104.484 274.569 105.19C275.264 105.892 275.751 106.74 276.03 107.733C276.332 108.806 276.372 109.834 276.15 110.816C275.938 111.795 275.515 112.639 274.881 113.347C274.247 114.055 273.447 114.54 272.482 114.8Z" fill="#070907" fill-opacity="0.6"/>
<path d="M43.603 110.719C43.8579 110.838 44.0307 111.022 44.1214 111.271C44.2121 111.52 44.198 111.772 44.0791 112.027C43.9603 112.282 43.7741 112.459 43.5205 112.56C43.2713 112.65 43.0193 112.636 42.7644 112.517L32.3985 107.684C32.1341 107.56 31.9519 107.372 31.8518 107.118C31.7655 106.86 31.7818 106.603 31.9006 106.348C32.0195 106.093 32.2035 105.92 32.4527 105.83C32.7113 105.743 32.9728 105.762 33.2371 105.885L43.603 110.719ZM41.3909 115.463C41.6458 115.582 41.8164 115.77 41.9027 116.029C41.9889 116.288 41.9727 116.544 41.8538 116.799C41.7393 117.045 41.5575 117.213 41.3084 117.304C41.0592 117.394 40.8071 117.38 40.5522 117.261L30.1863 112.428C29.922 112.304 29.7398 112.116 29.6396 111.862C29.5489 111.613 29.5608 111.366 29.6753 111.12C29.7941 110.866 29.9804 110.688 30.2339 110.588C30.497 110.492 30.7606 110.506 31.025 110.629L41.3909 115.463ZM24.767 118.245C23.2471 117.536 22.2827 116.609 21.874 115.465C21.4652 114.32 21.6174 112.983 22.3306 111.454L32.2951 90.0849C33.0039 88.5649 33.928 87.5936 35.0676 87.171C36.2115 86.739 37.5434 86.8774 39.0634 87.5861L45.889 90.769C46.4838 91.0463 46.9832 91.3309 47.3873 91.6228C47.7958 91.9052 48.1382 92.2431 48.4146 92.6363C48.6954 93.0201 48.9394 93.5074 49.1466 94.0983L53.0474 105.106C53.2691 105.715 53.3935 106.262 53.4207 106.746C53.4618 107.225 53.4122 107.713 53.272 108.211C53.1362 108.699 52.9143 109.274 52.6061 109.935L46.6168 122.779C45.908 124.299 44.9839 125.27 43.8444 125.693C42.7004 126.125 41.3685 125.986 39.8485 125.277L24.767 118.245ZM26.2945 115.561L40.9228 122.382C41.612 122.703 42.208 122.769 42.7107 122.578C43.2135 122.387 43.6167 121.966 43.9205 121.315L49.6522 109.023L42.0194 105.464C41.0093 104.992 40.3707 104.39 40.1036 103.656C39.846 102.927 39.9528 102.057 40.4238 101.047L44.0425 93.287L38.0099 90.474C37.3207 90.1526 36.7225 90.0921 36.2154 90.2923C35.7082 90.4926 35.3028 90.9184 34.999 91.5698L25.1996 112.585C24.8958 113.236 24.8324 113.816 25.0094 114.324C25.1864 114.831 25.6147 115.244 26.2945 115.561ZM43.4309 103.139L50.4123 106.395L46.314 94.8118L42.9991 101.921C42.8627 102.213 42.825 102.454 42.8861 102.644C42.9566 102.838 43.1382 103.003 43.4309 103.139Z" fill="#070907" fill-opacity="0.6"/>
</svg>
