<svg width="396" height="136" viewBox="0 0 396 136" fill="none" xmlns="http://www.w3.org/2000/svg">
<path d="M109.513 87.4736V86.0674H113.09C113.999 86.0674 114.702 85.833 115.2 85.3643C115.698 84.8896 115.947 84.2363 115.947 83.4043V83.3867C115.947 82.5488 115.698 81.8955 115.2 81.4268C114.702 80.958 113.999 80.7236 113.09 80.7236H109.513V79.3174H113.495C114.292 79.3174 114.995 79.4873 115.604 79.8271C116.213 80.167 116.691 80.6416 117.037 81.251C117.388 81.8604 117.564 82.5664 117.564 83.3691V83.3867C117.564 84.1895 117.388 84.8984 117.037 85.5137C116.691 86.1289 116.213 86.6094 115.604 86.9551C114.995 87.3008 114.292 87.4736 113.495 87.4736H109.513ZM108.722 92V79.3174H110.304V92H108.722ZM121.722 92.167C121.124 92.167 120.585 92.0527 120.105 91.8242C119.63 91.5957 119.255 91.2705 118.98 90.8486C118.704 90.4268 118.567 89.9287 118.567 89.3545V89.3369C118.567 88.7803 118.701 88.3027 118.971 87.9043C119.24 87.5 119.63 87.1836 120.14 86.9551C120.655 86.7266 121.279 86.5918 122.012 86.5508L125.492 86.3398V87.5615L122.196 87.7725C121.482 87.8135 120.957 87.9629 120.623 88.2207C120.295 88.4785 120.131 88.8389 120.131 89.3018V89.3193C120.131 89.7998 120.31 90.1748 120.667 90.4443C121.03 90.708 121.488 90.8398 122.038 90.8398C122.56 90.8398 123.023 90.7373 123.427 90.5322C123.831 90.3213 124.148 90.0371 124.376 89.6797C124.611 89.3223 124.728 88.918 124.728 88.4668V85.5312C124.728 84.9453 124.549 84.5 124.192 84.1953C123.84 83.8848 123.31 83.7295 122.601 83.7295C122.032 83.7295 121.567 83.832 121.203 84.0371C120.84 84.2363 120.597 84.5234 120.474 84.8984L120.465 84.9248H118.945L118.953 84.8721C119.029 84.374 119.232 83.9375 119.56 83.5625C119.894 83.1875 120.324 82.8975 120.852 82.6924C121.379 82.4814 121.98 82.376 122.654 82.376C123.427 82.376 124.08 82.502 124.613 82.7539C125.147 83.0059 125.554 83.3662 125.835 83.835C126.116 84.3037 126.257 84.8662 126.257 85.5225V92H124.728V90.6025H124.587C124.388 90.9365 124.145 91.2207 123.858 91.4551C123.576 91.6895 123.257 91.8682 122.9 91.9912C122.542 92.1084 122.15 92.167 121.722 92.167ZM128.587 92V82.543H130.116V83.9492H130.248C130.43 83.4512 130.734 83.0645 131.162 82.7891C131.596 82.5137 132.129 82.376 132.762 82.376C132.908 82.376 133.052 82.3848 133.192 82.4023C133.339 82.4141 133.447 82.4258 133.517 82.4375V83.9229C133.365 83.8936 133.213 83.873 133.06 83.8613C132.914 83.8438 132.756 83.835 132.586 83.835C132.105 83.835 131.678 83.9316 131.303 84.125C130.933 84.3125 130.643 84.5791 130.433 84.9248C130.222 85.2705 130.116 85.6748 130.116 86.1377V92H128.587ZM137.561 92.167C136.963 92.167 136.424 92.0527 135.944 91.8242C135.469 91.5957 135.094 91.2705 134.819 90.8486C134.544 90.4268 134.406 89.9287 134.406 89.3545V89.3369C134.406 88.7803 134.541 88.3027 134.81 87.9043C135.08 87.5 135.469 87.1836 135.979 86.9551C136.495 86.7266 137.119 86.5918 137.851 86.5508L141.332 86.3398V87.5615L138.036 87.7725C137.321 87.8135 136.796 87.9629 136.462 88.2207C136.134 88.4785 135.97 88.8389 135.97 89.3018V89.3193C135.97 89.7998 136.149 90.1748 136.506 90.4443C136.87 90.708 137.327 90.8398 137.878 90.8398C138.399 90.8398 138.862 90.7373 139.266 90.5322C139.67 90.3213 139.987 90.0371 140.215 89.6797C140.45 89.3223 140.567 88.918 140.567 88.4668V85.5312C140.567 84.9453 140.388 84.5 140.031 84.1953C139.679 83.8848 139.149 83.7295 138.44 83.7295C137.872 83.7295 137.406 83.832 137.043 84.0371C136.679 84.2363 136.436 84.5234 136.313 84.8984L136.304 84.9248H134.784L134.793 84.8721C134.869 84.374 135.071 83.9375 135.399 83.5625C135.733 83.1875 136.164 82.8975 136.691 82.6924C137.218 82.4814 137.819 82.376 138.493 82.376C139.266 82.376 139.919 82.502 140.453 82.7539C140.986 83.0059 141.393 83.3662 141.674 83.835C141.956 84.3037 142.096 84.8662 142.096 85.5225V92H140.567V90.6025H140.426C140.227 90.9365 139.984 91.2207 139.697 91.4551C139.416 91.6895 139.096 91.8682 138.739 91.9912C138.381 92.1084 137.989 92.167 137.561 92.167ZM152.873 92.167C151.994 92.167 151.229 91.9648 150.579 91.5605C149.929 91.1562 149.425 90.5879 149.067 89.8555C148.71 89.1172 148.531 88.2471 148.531 87.2451V87.2275C148.531 86.2432 148.707 85.3877 149.059 84.6611C149.416 83.9346 149.92 83.3721 150.57 82.9736C151.221 82.5752 151.985 82.376 152.864 82.376C153.632 82.376 154.294 82.5107 154.851 82.7803C155.407 83.0498 155.852 83.4131 156.186 83.8701C156.52 84.3213 156.734 84.8281 156.828 85.3906L156.837 85.4434H155.316L155.308 85.417C155.19 84.9482 154.924 84.5498 154.508 84.2217C154.092 83.8936 153.544 83.7295 152.864 83.7295C152.302 83.7295 151.812 83.873 151.396 84.1602C150.98 84.4473 150.658 84.8516 150.43 85.373C150.207 85.8945 150.096 86.5127 150.096 87.2275V87.2451C150.096 87.9717 150.21 88.6016 150.438 89.1348C150.667 89.668 150.989 90.0811 151.405 90.374C151.821 90.667 152.308 90.8135 152.864 90.8135C153.503 90.8135 154.024 90.6758 154.429 90.4004C154.833 90.1191 155.123 89.7178 155.299 89.1963L155.316 89.1348L156.828 89.126L156.81 89.2227C156.682 89.791 156.453 90.2979 156.125 90.7432C155.797 91.1885 155.363 91.5371 154.824 91.7891C154.285 92.041 153.635 92.167 152.873 92.167ZM162.498 92.167C161.607 92.167 160.834 91.9707 160.177 91.5781C159.527 91.1797 159.023 90.6143 158.666 89.8818C158.314 89.1494 158.138 88.2822 158.138 87.2803V87.2627C158.138 86.249 158.314 85.3789 158.666 84.6523C159.023 83.9199 159.527 83.3574 160.177 82.9648C160.834 82.5723 161.607 82.376 162.498 82.376C163.4 82.376 164.176 82.5723 164.827 82.9648C165.477 83.3574 165.978 83.9199 166.33 84.6523C166.687 85.3789 166.866 86.249 166.866 87.2627V87.2803C166.866 88.2881 166.687 89.1582 166.33 89.8906C165.978 90.6172 165.477 91.1797 164.827 91.5781C164.176 91.9707 163.4 92.167 162.498 92.167ZM162.498 90.8135C163.095 90.8135 163.602 90.6729 164.018 90.3916C164.434 90.1104 164.751 89.709 164.967 89.1875C165.19 88.6602 165.301 88.0244 165.301 87.2803V87.2627C165.301 86.5127 165.19 85.874 164.967 85.3467C164.751 84.8193 164.434 84.418 164.018 84.1426C163.602 83.8672 163.095 83.7295 162.498 83.7295C161.906 83.7295 161.402 83.8672 160.986 84.1426C160.57 84.418 160.251 84.8193 160.028 85.3467C159.811 85.874 159.703 86.5127 159.703 87.2627V87.2803C159.703 88.0244 159.811 88.6602 160.028 89.1875C160.251 89.709 160.57 90.1104 160.986 90.3916C161.402 90.6729 161.906 90.8135 162.498 90.8135ZM168.765 92V82.543H170.294V83.9756H170.426C170.637 83.4717 170.959 83.0791 171.393 82.7979C171.832 82.5166 172.363 82.376 172.984 82.376C173.411 82.376 173.795 82.4463 174.135 82.5869C174.475 82.7275 174.768 82.9238 175.014 83.1758C175.26 83.4219 175.456 83.709 175.603 84.0371H175.735C175.905 83.7031 176.133 83.4131 176.42 83.167C176.707 82.915 177.038 82.7217 177.413 82.5869C177.794 82.4463 178.201 82.376 178.635 82.376C179.28 82.376 179.824 82.4961 180.27 82.7363C180.721 82.9766 181.064 83.3281 181.298 83.791C181.533 84.248 181.65 84.8047 181.65 85.4609V92H180.12V85.8125C180.12 85.3496 180.047 84.9658 179.901 84.6611C179.76 84.3506 179.543 84.1191 179.25 83.9668C178.957 83.8086 178.588 83.7295 178.143 83.7295C177.703 83.7295 177.32 83.8291 176.991 84.0283C176.669 84.2217 176.417 84.4854 176.236 84.8193C176.054 85.1475 175.963 85.5137 175.963 85.918V92H174.434V85.584C174.434 85.209 174.352 84.8838 174.188 84.6084C174.03 84.3271 173.801 84.1104 173.502 83.958C173.209 83.8057 172.864 83.7295 172.465 83.7295C172.055 83.7295 171.686 83.8379 171.358 84.0547C171.03 84.2656 170.769 84.5557 170.575 84.9248C170.388 85.2881 170.294 85.6924 170.294 86.1377V92H168.765ZM187.803 92.167C186.9 92.167 186.127 91.9678 185.482 91.5693C184.838 91.1709 184.34 90.6084 183.988 89.8818C183.643 89.1553 183.47 88.2969 183.47 87.3066V87.2979C183.47 86.3193 183.643 85.4609 183.988 84.7227C184.34 83.9844 184.832 83.4102 185.465 83C186.103 82.584 186.851 82.376 187.706 82.376C188.567 82.376 189.306 82.5752 189.921 82.9736C190.542 83.3662 191.017 83.9199 191.345 84.6348C191.679 85.3438 191.846 86.1699 191.846 87.1133V87.7109H184.261V86.4893H191.063L190.308 87.6055V86.999C190.308 86.2549 190.196 85.6426 189.974 85.1621C189.751 84.6816 189.443 84.3242 189.051 84.0898C188.658 83.8555 188.207 83.7383 187.697 83.7383C187.187 83.7383 186.733 83.8613 186.335 84.1074C185.936 84.3535 185.62 84.7197 185.386 85.2061C185.151 85.6924 185.034 86.29 185.034 86.999V87.6055C185.034 88.2793 185.148 88.8535 185.377 89.3281C185.605 89.8027 185.928 90.1689 186.344 90.4268C186.766 90.6787 187.264 90.8047 187.838 90.8047C188.266 90.8047 188.638 90.7461 188.954 90.6289C189.27 90.5117 189.531 90.3623 189.736 90.1807C189.941 89.999 190.085 89.8115 190.167 89.6182L190.202 89.5391H191.731L191.714 89.6094C191.632 89.9375 191.485 90.2539 191.274 90.5586C191.069 90.8574 190.8 91.1299 190.466 91.376C190.138 91.6162 189.751 91.8096 189.306 91.9561C188.86 92.0967 188.359 92.167 187.803 92.167ZM197.63 92.167C196.751 92.167 195.986 91.9648 195.336 91.5605C194.685 91.1562 194.181 90.5879 193.824 89.8555C193.466 89.1172 193.288 88.2471 193.288 87.2451V87.2275C193.288 86.2432 193.464 85.3877 193.815 84.6611C194.173 83.9346 194.676 83.3721 195.327 82.9736C195.977 82.5752 196.742 82.376 197.621 82.376C198.388 82.376 199.05 82.5107 199.607 82.7803C200.164 83.0498 200.609 83.4131 200.943 83.8701C201.277 84.3213 201.491 84.8281 201.585 85.3906L201.593 85.4434H200.073L200.064 85.417C199.947 84.9482 199.68 84.5498 199.264 84.2217C198.848 83.8936 198.3 83.7295 197.621 83.7295C197.058 83.7295 196.569 83.873 196.153 84.1602C195.737 84.4473 195.415 84.8516 195.186 85.373C194.964 85.8945 194.852 86.5127 194.852 87.2275V87.2451C194.852 87.9717 194.966 88.6016 195.195 89.1348C195.423 89.668 195.746 90.0811 196.162 90.374C196.578 90.667 197.064 90.8135 197.621 90.8135C198.259 90.8135 198.781 90.6758 199.185 90.4004C199.589 90.1191 199.88 89.7178 200.055 89.1963L200.073 89.1348L201.585 89.126L201.567 89.2227C201.438 89.791 201.21 90.2979 200.881 90.7432C200.553 91.1885 200.12 91.5371 199.581 91.7891C199.042 92.041 198.391 92.167 197.63 92.167ZM197.392 96.3242C197.152 96.3242 196.912 96.3096 196.672 96.2803C196.437 96.2568 196.206 96.2188 195.977 96.166V95.1465C196.059 95.1641 196.203 95.1875 196.408 95.2168C196.619 95.2461 196.85 95.2607 197.102 95.2607C197.372 95.2607 197.624 95.2139 197.858 95.1201C198.098 95.0264 198.218 94.8506 198.218 94.5928V94.5752C198.218 94.2939 198.101 94.1035 197.867 94.0039C197.632 93.9102 197.284 93.8633 196.821 93.8633H196.496V93.0723L197.339 91.8066H198.456V92L197.805 92.9141C198.368 92.9141 198.822 93.0576 199.168 93.3447C199.513 93.6377 199.686 94.0303 199.686 94.5225V94.54C199.686 94.9736 199.575 95.3193 199.352 95.5771C199.135 95.8408 198.851 96.0312 198.5 96.1484C198.154 96.2656 197.785 96.3242 197.392 96.3242ZM205.971 92.167C205.373 92.167 204.834 92.0527 204.354 91.8242C203.879 91.5957 203.504 91.2705 203.229 90.8486C202.953 90.4268 202.816 89.9287 202.816 89.3545V89.3369C202.816 88.7803 202.951 88.3027 203.22 87.9043C203.49 87.5 203.879 87.1836 204.389 86.9551C204.905 86.7266 205.529 86.5918 206.261 86.5508L209.742 86.3398V87.5615L206.446 87.7725C205.731 87.8135 205.206 87.9629 204.872 88.2207C204.544 88.4785 204.38 88.8389 204.38 89.3018V89.3193C204.38 89.7998 204.559 90.1748 204.916 90.4443C205.28 90.708 205.737 90.8398 206.287 90.8398C206.809 90.8398 207.272 90.7373 207.676 90.5322C208.08 90.3213 208.397 90.0371 208.625 89.6797C208.86 89.3223 208.977 88.918 208.977 88.4668V85.5312C208.977 84.9453 208.798 84.5 208.441 84.1953C208.089 83.8848 207.559 83.7295 206.85 83.7295C206.282 83.7295 205.816 83.832 205.452 84.0371C205.089 84.2363 204.846 84.5234 204.723 84.8984L204.714 84.9248H203.194L203.202 84.8721C203.279 84.374 203.481 83.9375 203.809 83.5625C204.143 83.1875 204.574 82.8975 205.101 82.6924C205.628 82.4814 206.229 82.376 206.903 82.376C207.676 82.376 208.329 82.502 208.863 82.7539C209.396 83.0059 209.803 83.3662 210.084 83.835C210.366 84.3037 210.506 84.8662 210.506 85.5225V92H208.977V90.6025H208.836C208.637 90.9365 208.394 91.2207 208.107 91.4551C207.826 91.6895 207.506 91.8682 207.149 91.9912C206.791 92.1084 206.399 92.167 205.971 92.167ZM212.836 92V82.543H214.365V83.9492H214.497C214.679 83.4512 214.983 83.0645 215.411 82.7891C215.845 82.5137 216.378 82.376 217.011 82.376C217.157 82.376 217.301 82.3848 217.441 82.4023C217.588 82.4141 217.696 82.4258 217.767 82.4375V83.9229C217.614 83.8936 217.462 83.873 217.31 83.8613C217.163 83.8438 217.005 83.835 216.835 83.835C216.354 83.835 215.927 83.9316 215.552 84.125C215.183 84.3125 214.893 84.5791 214.682 84.9248C214.471 85.2705 214.365 85.6748 214.365 86.1377V92H212.836ZM217.688 95.1904L218.453 90.2246H220.193L218.813 95.1904H217.688ZM231.339 92.167C230.46 92.167 229.695 91.9648 229.045 91.5605C228.395 91.1562 227.891 90.5879 227.533 89.8555C227.176 89.1172 226.997 88.2471 226.997 87.2451V87.2275C226.997 86.2432 227.173 85.3877 227.524 84.6611C227.882 83.9346 228.386 83.3721 229.036 82.9736C229.687 82.5752 230.451 82.376 231.33 82.376C232.098 82.376 232.76 82.5107 233.316 82.7803C233.873 83.0498 234.318 83.4131 234.652 83.8701C234.986 84.3213 235.2 84.8281 235.294 85.3906L235.303 85.4434H233.782L233.773 85.417C233.656 84.9482 233.39 84.5498 232.974 84.2217C232.558 83.8936 232.01 83.7295 231.33 83.7295C230.768 83.7295 230.278 83.873 229.862 84.1602C229.446 84.4473 229.124 84.8516 228.896 85.373C228.673 85.8945 228.562 86.5127 228.562 87.2275V87.2451C228.562 87.9717 228.676 88.6016 228.904 89.1348C229.133 89.668 229.455 90.0811 229.871 90.374C230.287 90.667 230.773 90.8135 231.33 90.8135C231.969 90.8135 232.49 90.6758 232.895 90.4004C233.299 90.1191 233.589 89.7178 233.765 89.1963L233.782 89.1348L235.294 89.126L235.276 89.2227C235.148 89.791 234.919 90.2979 234.591 90.7432C234.263 91.1885 233.829 91.5371 233.29 91.7891C232.751 92.041 232.101 92.167 231.339 92.167ZM237.079 92V82.543H238.608V83.9492H238.74C238.922 83.4512 239.226 83.0645 239.654 82.7891C240.088 82.5137 240.621 82.376 241.254 82.376C241.4 82.376 241.544 82.3848 241.684 82.4023C241.831 82.4141 241.939 82.4258 242.009 82.4375V83.9229C241.857 83.8936 241.705 83.873 241.552 83.8613C241.406 83.8438 241.248 83.835 241.078 83.835C240.597 83.835 240.17 83.9316 239.795 84.125C239.426 84.3125 239.135 84.5791 238.925 84.9248C238.714 85.2705 238.608 85.6748 238.608 86.1377V92H237.079ZM243.487 92V82.543H245.016V92H243.487ZM244.26 80.7236C243.973 80.7236 243.727 80.6211 243.522 80.416C243.317 80.2051 243.214 79.959 243.214 79.6777C243.214 79.3848 243.317 79.1357 243.522 78.9307C243.727 78.7256 243.973 78.623 244.26 78.623C244.553 78.623 244.802 78.7256 245.007 78.9307C245.212 79.1357 245.315 79.3848 245.315 79.6777C245.315 79.959 245.212 80.2051 245.007 80.416C244.802 80.6211 244.553 80.7236 244.26 80.7236ZM251.292 92.167C250.39 92.167 249.616 91.9678 248.972 91.5693C248.327 91.1709 247.829 90.6084 247.478 89.8818C247.132 89.1553 246.959 88.2969 246.959 87.3066V87.2979C246.959 86.3193 247.132 85.4609 247.478 84.7227C247.829 83.9844 248.321 83.4102 248.954 83C249.593 82.584 250.34 82.376 251.195 82.376C252.057 82.376 252.795 82.5752 253.41 82.9736C254.031 83.3662 254.506 83.9199 254.834 84.6348C255.168 85.3438 255.335 86.1699 255.335 87.1133V87.7109H247.75V86.4893H254.553L253.797 87.6055V86.999C253.797 86.2549 253.686 85.6426 253.463 85.1621C253.24 84.6816 252.933 84.3242 252.54 84.0898C252.148 83.8555 251.696 83.7383 251.187 83.7383C250.677 83.7383 250.223 83.8613 249.824 84.1074C249.426 84.3535 249.109 84.7197 248.875 85.2061C248.641 85.6924 248.524 86.29 248.524 86.999V87.6055C248.524 88.2793 248.638 88.8535 248.866 89.3281C249.095 89.8027 249.417 90.1689 249.833 90.4268C250.255 90.6787 250.753 90.8047 251.327 90.8047C251.755 90.8047 252.127 90.7461 252.443 90.6289C252.76 90.5117 253.021 90.3623 253.226 90.1807C253.431 89.999 253.574 89.8115 253.656 89.6182L253.691 89.5391H255.221L255.203 89.6094C255.121 89.9375 254.975 90.2539 254.764 90.5586C254.559 90.8574 254.289 91.1299 253.955 91.376C253.627 91.6162 253.24 91.8096 252.795 91.9561C252.35 92.0967 251.849 92.167 251.292 92.167ZM265.083 92.167C264.38 92.167 263.759 92.0615 263.22 91.8506C262.681 91.6338 262.247 91.332 261.919 90.9453C261.597 90.5527 261.407 90.0957 261.348 89.5742H262.913C263.041 89.9727 263.29 90.292 263.66 90.5322C264.035 90.7725 264.527 90.8926 265.136 90.8926C265.558 90.8926 265.93 90.8311 266.252 90.708C266.581 90.5791 266.835 90.4062 267.017 90.1895C267.205 89.9727 267.298 89.7207 267.298 89.4336V89.416C267.298 89.0938 267.169 88.8213 266.912 88.5986C266.66 88.3701 266.244 88.1855 265.664 88.0449L264.196 87.6934C263.604 87.5527 263.118 87.3711 262.737 87.1484C262.356 86.9199 262.075 86.6416 261.893 86.3135C261.711 85.9795 261.621 85.5869 261.621 85.1357V85.127C261.621 84.5996 261.773 84.1279 262.078 83.7119C262.388 83.2959 262.807 82.9707 263.334 82.7363C263.868 82.4961 264.468 82.376 265.136 82.376C265.798 82.376 266.384 82.4814 266.894 82.6924C267.41 82.8975 267.823 83.1934 268.133 83.5801C268.45 83.9609 268.64 84.4062 268.705 84.916V84.9248H267.21H267.202C267.108 84.5439 266.882 84.2363 266.525 84.002C266.167 83.7676 265.702 83.6504 265.127 83.6504C264.752 83.6504 264.418 83.7119 264.125 83.835C263.838 83.9521 263.61 84.1162 263.44 84.3271C263.27 84.5322 263.185 84.7754 263.185 85.0566V85.0742C263.185 85.2852 263.241 85.4727 263.352 85.6367C263.463 85.8008 263.633 85.9443 263.862 86.0674C264.096 86.1904 264.398 86.2988 264.767 86.3926L266.226 86.7441C267.117 86.9609 267.779 87.2715 268.212 87.6758C268.646 88.0801 268.863 88.6221 268.863 89.3018V89.3193C268.863 89.876 268.696 90.3711 268.362 90.8047C268.034 91.2324 267.582 91.5664 267.008 91.8066C266.44 92.0469 265.798 92.167 265.083 92.167ZM273.961 92.167C273.246 92.167 272.646 92.0322 272.159 91.7627C271.673 91.4873 271.307 91.0889 271.061 90.5674C270.82 90.04 270.7 89.4072 270.7 88.6689V82.543H272.23V88.2998C272.23 89.1436 272.394 89.7734 272.722 90.1895C273.056 90.6055 273.601 90.8135 274.357 90.8135C274.767 90.8135 275.13 90.752 275.446 90.6289C275.769 90.5059 276.038 90.3301 276.255 90.1016C276.472 89.8672 276.633 89.5859 276.738 89.2578C276.85 88.9238 276.905 88.5518 276.905 88.1416V82.543H278.435V92H276.905V90.5938H276.774C276.615 90.9219 276.404 91.2061 276.141 91.4463C275.877 91.6807 275.564 91.8594 275.2 91.9824C274.837 92.1055 274.424 92.167 273.961 92.167ZM283.419 92.167C282.821 92.167 282.282 92.0527 281.802 91.8242C281.327 91.5957 280.952 91.2705 280.677 90.8486C280.401 90.4268 280.263 89.9287 280.263 89.3545V89.3369C280.263 88.7803 280.398 88.3027 280.668 87.9043C280.937 87.5 281.327 87.1836 281.837 86.9551C282.352 86.7266 282.976 86.5918 283.709 86.5508L287.189 86.3398V87.5615L283.893 87.7725C283.179 87.8135 282.654 87.9629 282.32 88.2207C281.992 88.4785 281.828 88.8389 281.828 89.3018V89.3193C281.828 89.7998 282.007 90.1748 282.364 90.4443C282.727 90.708 283.184 90.8398 283.735 90.8398C284.257 90.8398 284.72 90.7373 285.124 90.5322C285.528 90.3213 285.845 90.0371 286.073 89.6797C286.307 89.3223 286.425 88.918 286.425 88.4668V85.5312C286.425 84.9453 286.246 84.5 285.888 84.1953C285.537 83.8848 285.007 83.7295 284.298 83.7295C283.729 83.7295 283.263 83.832 282.9 84.0371C282.537 84.2363 282.294 84.5234 282.171 84.8984L282.162 84.9248H280.641L280.65 84.8721C280.726 84.374 280.929 83.9375 281.257 83.5625C281.591 83.1875 282.021 82.8975 282.549 82.6924C283.076 82.4814 283.677 82.376 284.35 82.376C285.124 82.376 285.777 82.502 286.31 82.7539C286.844 83.0059 287.251 83.3662 287.532 83.835C287.813 84.3037 287.954 84.8662 287.954 85.5225V92H286.425V90.6025H286.284C286.085 90.9365 285.842 91.2207 285.555 91.4551C285.273 91.6895 284.954 91.8682 284.596 91.9912C284.239 92.1084 283.846 92.167 283.419 92.167ZM176.329 110.079C175.362 110.079 174.659 109.883 174.22 109.49C173.786 109.092 173.569 108.444 173.569 107.548V101.809H172.084V100.543H173.569V98.0908H175.151V100.543H177.208V101.809H175.151V107.179C175.151 107.729 175.257 108.125 175.468 108.365C175.679 108.605 176.027 108.726 176.513 108.726C176.648 108.726 176.762 108.723 176.856 108.717C176.956 108.711 177.073 108.702 177.208 108.69V109.991C177.067 110.015 176.924 110.035 176.777 110.053C176.631 110.07 176.481 110.079 176.329 110.079ZM182.209 110.167C181.495 110.167 180.894 110.032 180.408 109.763C179.921 109.487 179.555 109.089 179.309 108.567C179.069 108.04 178.949 107.407 178.949 106.669V100.543H180.478V106.3C180.478 107.144 180.642 107.773 180.97 108.189C181.304 108.605 181.849 108.813 182.605 108.813C183.015 108.813 183.378 108.752 183.695 108.629C184.017 108.506 184.287 108.33 184.503 108.102C184.72 107.867 184.881 107.586 184.987 107.258C185.098 106.924 185.154 106.552 185.154 106.142V100.543H186.683V110H185.154V108.594H185.022C184.864 108.922 184.653 109.206 184.389 109.446C184.125 109.681 183.812 109.859 183.449 109.982C183.085 110.105 182.672 110.167 182.209 110.167ZM189.066 110V100.543H190.595V101.949H190.727C190.908 101.451 191.213 101.064 191.641 100.789C192.074 100.514 192.608 100.376 193.24 100.376C193.387 100.376 193.53 100.385 193.671 100.402C193.818 100.414 193.926 100.426 193.996 100.438V101.923C193.844 101.894 193.692 101.873 193.539 101.861C193.393 101.844 193.235 101.835 193.065 101.835C192.584 101.835 192.156 101.932 191.781 102.125C191.412 102.312 191.122 102.579 190.911 102.925C190.7 103.271 190.595 103.675 190.595 104.138V110H189.066ZM195.614 110V100.543H197.143V101.976H197.275C197.486 101.472 197.808 101.079 198.242 100.798C198.681 100.517 199.212 100.376 199.833 100.376C200.261 100.376 200.644 100.446 200.984 100.587C201.324 100.728 201.617 100.924 201.863 101.176C202.109 101.422 202.306 101.709 202.452 102.037H202.584C202.754 101.703 202.982 101.413 203.269 101.167C203.556 100.915 203.888 100.722 204.263 100.587C204.643 100.446 205.051 100.376 205.484 100.376C206.129 100.376 206.674 100.496 207.119 100.736C207.57 100.977 207.913 101.328 208.147 101.791C208.382 102.248 208.499 102.805 208.499 103.461V110H206.97V103.812C206.97 103.35 206.896 102.966 206.75 102.661C206.609 102.351 206.392 102.119 206.099 101.967C205.806 101.809 205.437 101.729 204.992 101.729C204.553 101.729 204.169 101.829 203.841 102.028C203.518 102.222 203.266 102.485 203.085 102.819C202.903 103.147 202.812 103.514 202.812 103.918V110H201.283V103.584C201.283 103.209 201.201 102.884 201.037 102.608C200.879 102.327 200.65 102.11 200.351 101.958C200.058 101.806 199.713 101.729 199.314 101.729C198.904 101.729 198.535 101.838 198.207 102.055C197.879 102.266 197.618 102.556 197.425 102.925C197.237 103.288 197.143 103.692 197.143 104.138V110H195.614ZM213.395 110.167C212.797 110.167 212.258 110.053 211.778 109.824C211.303 109.596 210.928 109.271 210.653 108.849C210.377 108.427 210.24 107.929 210.24 107.354V107.337C210.24 106.78 210.375 106.303 210.644 105.904C210.914 105.5 211.303 105.184 211.813 104.955C212.329 104.727 212.953 104.592 213.685 104.551L217.166 104.34V105.562L213.87 105.772C213.155 105.813 212.63 105.963 212.296 106.221C211.968 106.479 211.804 106.839 211.804 107.302V107.319C211.804 107.8 211.983 108.175 212.34 108.444C212.704 108.708 213.161 108.84 213.711 108.84C214.233 108.84 214.696 108.737 215.1 108.532C215.504 108.321 215.821 108.037 216.049 107.68C216.284 107.322 216.401 106.918 216.401 106.467V103.531C216.401 102.945 216.222 102.5 215.865 102.195C215.513 101.885 214.983 101.729 214.274 101.729C213.706 101.729 213.24 101.832 212.876 102.037C212.513 102.236 212.27 102.523 212.147 102.898L212.138 102.925H210.618L210.626 102.872C210.703 102.374 210.905 101.938 211.233 101.562C211.567 101.188 211.998 100.897 212.525 100.692C213.052 100.481 213.653 100.376 214.327 100.376C215.1 100.376 215.753 100.502 216.287 100.754C216.82 101.006 217.227 101.366 217.508 101.835C217.79 102.304 217.93 102.866 217.93 103.522V110H216.401V108.603H216.26C216.061 108.937 215.818 109.221 215.531 109.455C215.25 109.689 214.93 109.868 214.573 109.991C214.215 110.108 213.823 110.167 213.395 110.167ZM220.902 105.781L220.752 97.3086H222.51L222.361 105.781H220.902ZM221.64 110.158C221.288 110.158 220.998 110.044 220.77 109.815C220.541 109.587 220.427 109.297 220.427 108.945C220.427 108.582 220.541 108.289 220.77 108.066C220.998 107.838 221.288 107.724 221.64 107.724C221.991 107.724 222.279 107.838 222.501 108.066C222.73 108.289 222.844 108.582 222.844 108.945C222.844 109.297 222.73 109.587 222.501 109.815C222.279 110.044 221.991 110.158 221.64 110.158Z" fill="#070907" fill-opacity="0.6"/>
<path d="M184.172 62.1875C181.62 62.1875 180.344 61.3542 180.344 59.6875C180.344 58.6667 180.656 57.5781 181.281 56.4219C181.906 55.2656 182.807 54.1771 183.984 53.1562C185.172 52.125 186.604 51.2865 188.281 50.6406C189.969 49.9948 191.87 49.6719 193.984 49.6719C196.109 49.6719 198.01 49.9948 199.688 50.6406C201.375 51.2865 202.807 52.125 203.984 53.1562C205.172 54.1771 206.078 55.2656 206.703 56.4219C207.328 57.5781 207.641 58.6667 207.641 59.6875C207.641 61.3542 206.359 62.1875 203.797 62.1875H184.172ZM183.422 59.8281H204.547C204.755 59.8281 204.901 59.7969 204.984 59.7344C205.078 59.6719 205.125 59.5573 205.125 59.3906C205.125 58.7448 204.88 58.0052 204.391 57.1719C203.911 56.3385 203.198 55.5312 202.25 54.75C201.302 53.9688 200.135 53.3229 198.75 52.8125C197.365 52.2917 195.776 52.0312 193.984 52.0312C192.193 52.0312 190.604 52.2917 189.219 52.8125C187.844 53.3229 186.682 53.9688 185.734 54.75C184.786 55.5312 184.068 56.3385 183.578 57.1719C183.099 58.0052 182.859 58.7448 182.859 59.3906C182.859 59.5573 182.901 59.6719 182.984 59.7344C183.078 59.7969 183.224 59.8281 183.422 59.8281ZM194 47.7188C192.76 47.7188 191.63 47.3906 190.609 46.7344C189.589 46.0781 188.771 45.1979 188.156 44.0938C187.552 42.9792 187.25 41.7552 187.25 40.4219C187.25 39.099 187.552 37.8958 188.156 36.8125C188.771 35.7292 189.589 34.8646 190.609 34.2188C191.63 33.5729 192.76 33.25 194 33.25C195.25 33.25 196.385 33.5677 197.406 34.2031C198.427 34.8385 199.24 35.6979 199.844 36.7812C200.448 37.8542 200.75 39.0573 200.75 40.3906C200.75 41.7344 200.443 42.9635 199.828 44.0781C199.224 45.1823 198.411 46.0677 197.391 46.7344C196.37 47.3906 195.24 47.7188 194 47.7188ZM194 45.3594C194.771 45.3594 195.474 45.1406 196.109 44.7031C196.755 44.2552 197.271 43.6562 197.656 42.9062C198.042 42.1458 198.234 41.3073 198.234 40.3906C198.234 39.4844 198.042 38.6719 197.656 37.9531C197.281 37.224 196.771 36.651 196.125 36.2344C195.49 35.8177 194.781 35.6094 194 35.6094C193.229 35.6094 192.521 35.8229 191.875 36.25C191.229 36.6667 190.714 37.2396 190.328 37.9688C189.953 38.6979 189.766 39.5156 189.766 40.4219C189.766 41.3385 189.958 42.1719 190.344 42.9219C190.74 43.6719 191.255 44.2656 191.891 44.7031C192.536 45.1406 193.24 45.3594 194 45.3594ZM167.297 62.1875C166.245 62.1875 165.453 61.9688 164.922 61.5312C164.391 61.1042 164.125 60.4531 164.125 59.5781C164.125 58.2865 164.432 57.0469 165.047 55.8594C165.661 54.6615 166.51 53.599 167.594 52.6719C168.688 51.7344 169.948 50.9948 171.375 50.4531C172.812 49.9115 174.349 49.6406 175.984 49.6406C176.849 49.6406 177.688 49.7188 178.5 49.875C179.312 50.0208 180.094 50.2448 180.844 50.5469C181.604 50.8385 182.323 51.2031 183 51.6406C182.646 51.8906 182.323 52.1562 182.031 52.4375C181.74 52.7083 181.474 53 181.234 53.3125C180.724 53.0104 180.188 52.7604 179.625 52.5625C179.073 52.3646 178.49 52.2135 177.875 52.1094C177.271 52.0052 176.641 51.9531 175.984 51.9531C174.703 51.9531 173.49 52.1615 172.344 52.5781C171.198 52.9844 170.182 53.5417 169.297 54.25C168.411 54.9479 167.714 55.7448 167.203 56.6406C166.703 57.5365 166.453 58.4688 166.453 59.4375C166.453 59.5938 166.49 59.7031 166.562 59.7656C166.635 59.8385 166.755 59.875 166.922 59.875H178.359C178.307 60.3542 178.401 60.8073 178.641 61.2344C178.88 61.6615 179.188 61.9792 179.562 62.1875H167.297ZM176 47.8594C174.927 47.8594 173.948 47.5729 173.062 47C172.177 46.4167 171.469 45.6406 170.938 44.6719C170.406 43.7031 170.141 42.6302 170.141 41.4531C170.13 40.2969 170.391 39.2448 170.922 38.2969C171.453 37.3385 172.161 36.5781 173.047 36.0156C173.943 35.4427 174.927 35.1562 176 35.1562C177.083 35.1562 178.068 35.4375 178.953 36C179.839 36.5625 180.542 37.3177 181.062 38.2656C181.594 39.2135 181.859 40.2656 181.859 41.4219C181.859 42.599 181.594 43.6771 181.062 44.6562C180.531 45.6354 179.823 46.4167 178.938 47C178.052 47.5729 177.073 47.8594 176 47.8594ZM176 45.5312C176.635 45.5312 177.224 45.349 177.766 44.9844C178.307 44.6094 178.74 44.1146 179.062 43.5C179.385 42.875 179.547 42.1823 179.547 41.4219C179.547 40.6823 179.385 40.0156 179.062 39.4219C178.75 38.8281 178.323 38.3594 177.781 38.0156C177.25 37.6615 176.656 37.4844 176 37.4844C175.354 37.4844 174.76 37.6615 174.219 38.0156C173.688 38.3698 173.26 38.849 172.938 39.4531C172.625 40.0469 172.469 40.7135 172.469 41.4531C172.469 42.2031 172.63 42.8906 172.953 43.5156C173.276 44.1302 173.703 44.6198 174.234 44.9844C174.776 45.349 175.365 45.5312 176 45.5312ZM220.703 62.1875H208.438C208.802 61.9792 209.104 61.6615 209.344 61.2344C209.594 60.8073 209.693 60.3542 209.641 59.875H221.078C221.245 59.875 221.365 59.8385 221.438 59.7656C221.51 59.7031 221.547 59.5938 221.547 59.4375C221.547 58.4688 221.292 57.5365 220.781 56.6406C220.281 55.7448 219.589 54.9479 218.703 54.25C217.818 53.5417 216.802 52.9844 215.656 52.5781C214.51 52.1615 213.297 51.9531 212.016 51.9531C211.359 51.9531 210.724 52.0052 210.109 52.1094C209.505 52.2135 208.922 52.3646 208.359 52.5625C207.807 52.7604 207.276 53.0104 206.766 53.3125C206.526 53 206.26 52.7083 205.969 52.4375C205.677 52.1562 205.354 51.8906 205 51.6406C205.677 51.2031 206.391 50.8385 207.141 50.5469C207.901 50.2448 208.688 50.0208 209.5 49.875C210.312 49.7188 211.151 49.6406 212.016 49.6406C213.651 49.6406 215.182 49.9115 216.609 50.4531C218.047 50.9948 219.307 51.7344 220.391 52.6719C221.484 53.599 222.339 54.6615 222.953 55.8594C223.568 57.0469 223.875 58.2865 223.875 59.5781C223.875 60.4531 223.609 61.1042 223.078 61.5312C222.547 61.9688 221.755 62.1875 220.703 62.1875ZM212 47.8594C210.927 47.8594 209.948 47.5729 209.062 47C208.177 46.4167 207.469 45.6354 206.938 44.6562C206.406 43.6771 206.141 42.599 206.141 41.4219C206.141 40.2656 206.401 39.2135 206.922 38.2656C207.453 37.3177 208.161 36.5625 209.047 36C209.932 35.4375 210.917 35.1562 212 35.1562C213.073 35.1562 214.052 35.4427 214.938 36.0156C215.833 36.5781 216.542 37.3385 217.062 38.2969C217.594 39.2448 217.859 40.2969 217.859 41.4531C217.859 42.6302 217.594 43.7031 217.062 44.6719C216.531 45.6406 215.823 46.4167 214.938 47C214.052 47.5729 213.073 47.8594 212 47.8594ZM212 45.5312C212.635 45.5312 213.219 45.349 213.75 44.9844C214.292 44.6198 214.724 44.1302 215.047 43.5156C215.37 42.8906 215.531 42.2031 215.531 41.4531C215.531 40.7135 215.37 40.0469 215.047 39.4531C214.734 38.849 214.307 38.3698 213.766 38.0156C213.234 37.6615 212.646 37.4844 212 37.4844C211.344 37.4844 210.745 37.6615 210.203 38.0156C209.672 38.3594 209.245 38.8281 208.922 39.4219C208.609 40.0156 208.453 40.6823 208.453 41.4219C208.453 42.1823 208.615 42.875 208.938 43.5C209.26 44.1146 209.693 44.6094 210.234 44.9844C210.776 45.349 211.365 45.5312 212 45.5312Z" fill="#070907" fill-opacity="0.6"/>
<path d="M370.594 51.4844C370.146 51.4844 369.74 51.4792 369.375 51.4688C369.01 51.4583 368.708 51.4271 368.469 51.375C368.26 51.3333 368.068 51.2552 367.891 51.1406C367.714 51.0365 367.568 50.8958 367.453 50.7188C367.349 50.5417 367.297 50.3177 367.297 50.0469C367.297 49.6406 367.427 49.3177 367.688 49.0781C367.948 48.8385 368.281 48.7188 368.688 48.7188C368.958 48.7188 369.229 48.724 369.5 48.7344C369.771 48.7448 370.089 48.75 370.453 48.75C372.307 48.75 373.823 48.5104 375 48.0312C376.188 47.5625 377.062 46.7812 377.625 45.6875C378.188 44.5833 378.464 43.0885 378.453 41.2031L378.438 30.5156L378.578 26.2656L375.438 29.7031L370.328 34.8281C370.203 34.9531 370.052 35.0469 369.875 35.1094C369.698 35.1719 369.516 35.2031 369.328 35.2031C368.943 35.2031 368.62 35.0729 368.359 34.8125C368.109 34.5521 367.984 34.2292 367.984 33.8438C367.984 33.4688 368.13 33.1302 368.422 32.8281L378.797 22.4375C379.099 22.125 379.443 21.9688 379.828 21.9688C380.224 21.9688 380.573 22.125 380.875 22.4375L391.25 32.8281C391.542 33.1302 391.688 33.4688 391.688 33.8438C391.688 34.2292 391.557 34.5521 391.297 34.8125C391.047 35.0729 390.724 35.2031 390.328 35.2031C390.151 35.2031 389.974 35.1719 389.797 35.1094C389.62 35.0469 389.469 34.9531 389.344 34.8281L384.219 29.7031L381.109 26.2812L381.234 30.5156V41.3438C381.234 44.9792 380.365 47.5781 378.625 49.1406C376.885 50.7031 374.208 51.4844 370.594 51.4844Z" fill="#070907" fill-opacity="0.6"/>
</svg>
