<svg width="301" height="137" viewBox="0 0 301 137" fill="none" xmlns="http://www.w3.org/2000/svg">
<path d="M81.9382 64V51.3174H83.4763L90.7888 61.8115L89.6989 61.1963H90.4987V51.3174H92.0632V64H90.5251L83.2126 53.541L84.3025 54.1562H83.5027V64H81.9382ZM98.4975 64.167C97.5951 64.167 96.8217 63.9678 96.1771 63.5693C95.5326 63.1709 95.0346 62.6084 94.683 61.8818C94.3373 61.1553 94.1645 60.2969 94.1645 59.3066V59.2979C94.1645 58.3193 94.3373 57.4609 94.683 56.7227C95.0346 55.9844 95.5268 55.4102 96.1596 55C96.7982 54.584 97.5453 54.376 98.4008 54.376C99.2621 54.376 100 54.5752 100.616 54.9736C101.237 55.3662 101.711 55.9199 102.039 56.6348C102.373 57.3438 102.54 58.1699 102.54 59.1133V59.7109H94.9555V58.4893H101.758L101.002 59.6055V58.999C101.002 58.2549 100.891 57.6426 100.668 57.1621C100.446 56.6816 100.138 56.3242 99.7455 56.0898C99.3529 55.8555 98.9018 55.7383 98.392 55.7383C97.8822 55.7383 97.4281 55.8613 97.0297 56.1074C96.6312 56.3535 96.3148 56.7197 96.0805 57.2061C95.8461 57.6924 95.7289 58.29 95.7289 58.999V59.6055C95.7289 60.2793 95.8432 60.8535 96.0717 61.3281C96.3002 61.8027 96.6225 62.1689 97.0385 62.4268C97.4604 62.6787 97.9584 62.8047 98.5326 62.8047C98.9604 62.8047 99.3324 62.7461 99.6488 62.6289C99.9652 62.5117 100.226 62.3623 100.431 62.1807C100.636 61.999 100.78 61.8115 100.862 61.6182L100.897 61.5391H102.426L102.409 61.6094C102.327 61.9375 102.18 62.2539 101.969 62.5586C101.764 62.8574 101.495 63.1299 101.161 63.376C100.832 63.6162 100.446 63.8096 100 63.9561C99.5551 64.0967 99.0541 64.167 98.4975 64.167ZM104.457 64V54.543H105.986V55.958H106.118C106.358 55.46 106.704 55.0732 107.155 54.7979C107.612 54.5166 108.19 54.376 108.887 54.376C109.947 54.376 110.762 54.6807 111.33 55.29C111.904 55.8936 112.191 56.7549 112.191 57.874V64H110.662V58.2432C110.662 57.3877 110.481 56.7549 110.117 56.3447C109.76 55.9346 109.203 55.7295 108.447 55.7295C107.949 55.7295 107.516 55.8379 107.147 56.0547C106.777 56.2715 106.49 56.5791 106.285 56.9775C106.086 57.3701 105.986 57.8447 105.986 58.4014V64H104.457ZM114.574 64V50.79H116.103V55.9668H116.235C116.475 55.4629 116.821 55.0732 117.272 54.7979C117.729 54.5166 118.306 54.376 119.004 54.376C119.707 54.376 120.304 54.5137 120.797 54.7891C121.289 55.0586 121.664 55.457 121.922 55.9844C122.179 56.5059 122.308 57.1416 122.308 57.8916V64H120.779V58.252C120.779 57.3965 120.597 56.7637 120.234 56.3535C119.877 55.9375 119.32 55.7295 118.564 55.7295C118.06 55.7295 117.624 55.8379 117.255 56.0547C116.891 56.2715 116.607 56.5791 116.402 56.9775C116.203 57.376 116.103 57.8506 116.103 58.4014V64H114.574ZM127.776 64.167C127.061 64.167 126.46 64.0322 125.974 63.7627C125.488 63.4873 125.122 63.0889 124.875 62.5674C124.635 62.04 124.515 61.4072 124.515 60.6689V54.543H126.044V60.2998C126.044 61.1436 126.208 61.7734 126.537 62.1895C126.871 62.6055 127.415 62.8135 128.171 62.8135C128.581 62.8135 128.945 62.752 129.261 62.6289C129.583 62.5059 129.853 62.3301 130.07 62.1016C130.287 61.8672 130.448 61.5859 130.553 61.2578C130.664 60.9238 130.72 60.5518 130.72 60.1416V54.543H132.249V64H130.72V62.5938H130.588C130.43 62.9219 130.219 63.2061 129.956 63.4463C129.692 63.6807 129.378 63.8594 129.015 63.9824C128.652 64.1055 128.239 64.167 127.776 64.167ZM134.632 64V54.543H136.161V55.9756H136.293C136.504 55.4717 136.826 55.0791 137.26 54.7979C137.699 54.5166 138.23 54.376 138.851 54.376C139.278 54.376 139.662 54.4463 140.002 54.5869C140.342 54.7275 140.635 54.9238 140.881 55.1758C141.127 55.4219 141.323 55.709 141.47 56.0371H141.602C141.772 55.7031 142 55.4131 142.287 55.167C142.574 54.915 142.905 54.7217 143.28 54.5869C143.661 54.4463 144.068 54.376 144.502 54.376C145.147 54.376 145.692 54.4961 146.137 54.7363C146.588 54.9766 146.931 55.3281 147.165 55.791C147.4 56.248 147.517 56.8047 147.517 57.4609V64H145.987V57.8125C145.987 57.3496 145.914 56.9658 145.768 56.6611C145.627 56.3506 145.41 56.1191 145.117 55.9668C144.824 55.8086 144.455 55.7295 144.01 55.7295C143.57 55.7295 143.187 55.8291 142.859 56.0283C142.536 56.2217 142.284 56.4854 142.103 56.8193C141.921 57.1475 141.83 57.5137 141.83 57.918V64H140.301V57.584C140.301 57.209 140.219 56.8838 140.055 56.6084C139.897 56.3271 139.668 56.1104 139.369 55.958C139.076 55.8057 138.731 55.7295 138.332 55.7295C137.922 55.7295 137.553 55.8379 137.225 56.0547C136.897 56.2656 136.636 56.5557 136.442 56.9248C136.255 57.2881 136.161 57.6924 136.161 58.1377V64H134.632ZM152.413 64.167C151.815 64.167 151.276 64.0527 150.796 63.8242C150.321 63.5957 149.946 63.2705 149.671 62.8486C149.395 62.4268 149.258 61.9287 149.258 61.3545V61.3369C149.258 60.7803 149.392 60.3027 149.662 59.9043C149.931 59.5 150.321 59.1836 150.831 58.9551C151.346 58.7266 151.971 58.5918 152.703 58.5508L156.183 58.3398V59.5615L152.887 59.7725C152.173 59.8135 151.648 59.9629 151.314 60.2207C150.986 60.4785 150.822 60.8389 150.822 61.3018V61.3193C150.822 61.7998 151.001 62.1748 151.358 62.4443C151.721 62.708 152.179 62.8398 152.729 62.8398C153.251 62.8398 153.714 62.7373 154.118 62.5322C154.522 62.3213 154.839 62.0371 155.067 61.6797C155.302 61.3223 155.419 60.918 155.419 60.4668V57.5312C155.419 56.9453 155.24 56.5 154.883 56.1953C154.531 55.8848 154.001 55.7295 153.292 55.7295C152.723 55.7295 152.258 55.832 151.894 56.0371C151.531 56.2363 151.288 56.5234 151.165 56.8984L151.156 56.9248H149.636L149.644 56.8721C149.721 56.374 149.923 55.9375 150.251 55.5625C150.585 55.1875 151.015 54.8975 151.543 54.6924C152.07 54.4814 152.671 54.376 153.345 54.376C154.118 54.376 154.771 54.502 155.304 54.7539C155.838 55.0059 156.245 55.3662 156.526 55.835C156.807 56.3037 156.948 56.8662 156.948 57.5225V64H155.419V62.6025H155.278C155.079 62.9365 154.836 63.2207 154.549 63.4551C154.267 63.6895 153.948 63.8682 153.591 63.9912C153.233 64.1084 152.841 64.167 152.413 64.167ZM166.459 64.167C165.861 64.167 165.322 64.0527 164.842 63.8242C164.367 63.5957 163.992 63.2705 163.717 62.8486C163.442 62.4268 163.304 61.9287 163.304 61.3545V61.3369C163.304 60.7803 163.439 60.3027 163.708 59.9043C163.978 59.5 164.367 59.1836 164.877 58.9551C165.393 58.7266 166.017 58.5918 166.749 58.5508L170.23 58.3398V59.5615L166.934 59.7725C166.219 59.8135 165.694 59.9629 165.361 60.2207C165.032 60.4785 164.868 60.8389 164.868 61.3018V61.3193C164.868 61.7998 165.047 62.1748 165.404 62.4443C165.768 62.708 166.225 62.8398 166.776 62.8398C167.297 62.8398 167.76 62.7373 168.164 62.5322C168.569 62.3213 168.885 62.0371 169.113 61.6797C169.348 61.3223 169.465 60.918 169.465 60.4668V57.5312C169.465 56.9453 169.286 56.5 168.929 56.1953C168.577 55.8848 168.047 55.7295 167.338 55.7295C166.77 55.7295 166.304 55.832 165.941 56.0371C165.577 56.2363 165.334 56.5234 165.211 56.8984L165.202 56.9248H163.682L163.691 56.8721C163.767 56.374 163.969 55.9375 164.297 55.5625C164.631 55.1875 165.062 54.8975 165.589 54.6924C166.116 54.4814 166.717 54.376 167.391 54.376C168.164 54.376 168.818 54.502 169.351 54.7539C169.884 55.0059 170.291 55.3662 170.572 55.835C170.854 56.3037 170.994 56.8662 170.994 57.5225V64H169.465V62.6025H169.324C169.125 62.9365 168.882 63.2207 168.595 63.4551C168.314 63.6895 167.994 63.8682 167.637 63.9912C167.279 64.1084 166.887 64.167 166.459 64.167ZM176.673 64.0791C175.706 64.0791 175.003 63.8828 174.563 63.4902C174.13 63.0918 173.913 62.4443 173.913 61.5479V55.8086H172.428V54.543H173.913V52.0908H175.495V54.543H177.552V55.8086H175.495V61.1787C175.495 61.7295 175.6 62.125 175.811 62.3652C176.022 62.6055 176.371 62.7256 176.857 62.7256C176.992 62.7256 177.106 62.7227 177.2 62.7168C177.3 62.7109 177.417 62.7021 177.552 62.6904V63.9912C177.411 64.0146 177.267 64.0352 177.121 64.0527C176.974 64.0703 176.825 64.0791 176.673 64.0791ZM179.416 64V54.543H180.945V64H179.416ZM180.189 52.7236C179.902 52.7236 179.656 52.6211 179.451 52.416C179.246 52.2051 179.143 51.959 179.143 51.6777C179.143 51.3848 179.246 51.1357 179.451 50.9307C179.656 50.7256 179.902 50.623 180.189 50.623C180.482 50.623 180.731 50.7256 180.936 50.9307C181.141 51.1357 181.244 51.3848 181.244 51.6777C181.244 51.959 181.141 52.2051 180.936 52.416C180.731 52.6211 180.482 52.7236 180.189 52.7236ZM186.034 64L182.536 54.543H184.154L186.746 62.3301H186.878L189.471 54.543H191.088L187.581 64H186.034ZM192.688 64V54.543H194.218V64H192.688ZM193.462 52.7236C193.175 52.7236 192.929 52.6211 192.724 52.416C192.518 52.2051 192.416 51.959 192.416 51.6777C192.416 51.3848 192.518 51.1357 192.724 50.9307C192.929 50.7256 193.175 50.623 193.462 50.623C193.755 50.623 194.004 50.7256 194.209 50.9307C194.414 51.1357 194.516 51.3848 194.516 51.6777C194.516 51.959 194.414 52.2051 194.209 52.416C194.004 52.6211 193.755 52.7236 193.462 52.7236ZM200.125 64.167C199.334 64.167 198.639 63.9648 198.042 63.5605C197.444 63.1562 196.981 62.5879 196.653 61.8555C196.325 61.123 196.161 60.2646 196.161 59.2803V59.2627C196.161 58.2725 196.325 57.4111 196.653 56.6787C196.981 55.9463 197.441 55.3809 198.033 54.9824C198.63 54.5781 199.328 54.376 200.125 54.376C200.558 54.376 200.965 54.4463 201.346 54.5869C201.733 54.7217 202.076 54.9121 202.375 55.1582C202.673 55.4043 202.908 55.6973 203.078 56.0371H203.218V50.79H204.748V64H203.218V62.4883H203.078C202.884 62.8398 202.641 63.1416 202.348 63.3936C202.055 63.6396 201.721 63.8301 201.346 63.9648C200.971 64.0996 200.564 64.167 200.125 64.167ZM200.476 62.8135C201.05 62.8135 201.543 62.6699 201.953 62.3828C202.369 62.0957 202.688 61.6885 202.911 61.1611C203.139 60.6279 203.253 60.001 203.253 59.2803V59.2627C203.253 58.5303 203.139 57.9033 202.911 57.3818C202.688 56.8545 202.369 56.4473 201.953 56.1602C201.543 55.873 201.05 55.7295 200.476 55.7295C199.902 55.7295 199.41 55.873 199 56.1602C198.589 56.4414 198.273 56.8457 198.05 57.373C197.834 57.8945 197.725 58.5244 197.725 59.2627V59.2803C197.725 60.0127 197.834 60.6426 198.05 61.1699C198.273 61.6973 198.589 62.1045 199 62.3916C199.41 62.6729 199.902 62.8135 200.476 62.8135ZM209.811 64.167C209.213 64.167 208.674 64.0527 208.194 63.8242C207.719 63.5957 207.344 63.2705 207.069 62.8486C206.793 62.4268 206.656 61.9287 206.656 61.3545V61.3369C206.656 60.7803 206.79 60.3027 207.06 59.9043C207.329 59.5 207.719 59.1836 208.229 58.9551C208.744 58.7266 209.368 58.5918 210.101 58.5508L213.581 58.3398V59.5615L210.285 59.7725C209.571 59.8135 209.046 59.9629 208.712 60.2207C208.384 60.4785 208.22 60.8389 208.22 61.3018V61.3193C208.22 61.7998 208.399 62.1748 208.756 62.4443C209.119 62.708 209.576 62.8398 210.127 62.8398C210.649 62.8398 211.112 62.7373 211.516 62.5322C211.92 62.3213 212.237 62.0371 212.465 61.6797C212.699 61.3223 212.817 60.918 212.817 60.4668V57.5312C212.817 56.9453 212.638 56.5 212.281 56.1953C211.929 55.8848 211.399 55.7295 210.69 55.7295C210.121 55.7295 209.656 55.832 209.292 56.0371C208.929 56.2363 208.686 56.5234 208.563 56.8984L208.554 56.9248H207.033L207.042 56.8721C207.118 56.374 207.321 55.9375 207.649 55.5625C207.983 55.1875 208.413 54.8975 208.941 54.6924C209.468 54.4814 210.069 54.376 210.742 54.376C211.516 54.376 212.169 54.502 212.702 54.7539C213.236 55.0059 213.643 55.3662 213.924 55.835C214.205 56.3037 214.346 56.8662 214.346 57.5225V64H212.817V62.6025H212.676C212.477 62.9365 212.234 63.2207 211.947 63.4551C211.665 63.6895 211.346 63.8682 210.989 63.9912C210.631 64.1084 210.239 64.167 209.811 64.167ZM220.165 64.167C219.374 64.167 218.68 63.9648 218.082 63.5605C217.484 63.1562 217.021 62.5879 216.693 61.8555C216.365 61.123 216.201 60.2646 216.201 59.2803V59.2627C216.201 58.2725 216.365 57.4111 216.693 56.6787C217.021 55.9463 217.481 55.3809 218.073 54.9824C218.671 54.5781 219.368 54.376 220.165 54.376C220.599 54.376 221.006 54.4463 221.387 54.5869C221.773 54.7217 222.116 54.9121 222.415 55.1582C222.714 55.4043 222.948 55.6973 223.118 56.0371H223.259V50.79H224.788V64H223.259V62.4883H223.118C222.925 62.8398 222.682 63.1416 222.389 63.3936C222.096 63.6396 221.762 63.8301 221.387 63.9648C221.012 64.0996 220.604 64.167 220.165 64.167ZM220.517 62.8135C221.091 62.8135 221.583 62.6699 221.993 62.3828C222.409 62.0957 222.728 61.6885 222.951 61.1611C223.18 60.6279 223.294 60.001 223.294 59.2803V59.2627C223.294 58.5303 223.18 57.9033 222.951 57.3818C222.728 56.8545 222.409 56.4473 221.993 56.1602C221.583 55.873 221.091 55.7295 220.517 55.7295C219.942 55.7295 219.45 55.873 219.04 56.1602C218.63 56.4414 218.313 56.8457 218.091 57.373C217.874 57.8945 217.766 58.5244 217.766 59.2627V59.2803C217.766 60.0127 217.874 60.6426 218.091 61.1699C218.313 61.6973 218.63 62.1045 219.04 62.3916C219.45 62.6729 219.942 62.8135 220.517 62.8135ZM231.108 64.167C230.206 64.167 229.432 63.9678 228.788 63.5693C228.143 63.1709 227.645 62.6084 227.294 61.8818C226.948 61.1553 226.775 60.2969 226.775 59.3066V59.2979C226.775 58.3193 226.948 57.4609 227.294 56.7227C227.645 55.9844 228.137 55.4102 228.77 55C229.409 54.584 230.156 54.376 231.011 54.376C231.873 54.376 232.611 54.5752 233.226 54.9736C233.847 55.3662 234.322 55.9199 234.65 56.6348C234.984 57.3438 235.151 58.1699 235.151 59.1133V59.7109H227.566V58.4893H234.369L233.613 59.6055V58.999C233.613 58.2549 233.502 57.6426 233.279 57.1621C233.056 56.6816 232.749 56.3242 232.356 56.0898C231.963 55.8555 231.512 55.7383 231.003 55.7383C230.493 55.7383 230.039 55.8613 229.64 56.1074C229.242 56.3535 228.925 56.7197 228.691 57.2061C228.457 57.6924 228.339 58.29 228.339 58.999V59.6055C228.339 60.2793 228.454 60.8535 228.682 61.3281C228.911 61.8027 229.233 62.1689 229.649 62.4268C230.071 62.6787 230.569 62.8047 231.143 62.8047C231.571 62.8047 231.943 62.7461 232.259 62.6289C232.576 62.5117 232.837 62.3623 233.042 62.1807C233.247 61.999 233.39 61.8115 233.472 61.6182L233.507 61.5391H235.037L235.019 61.6094C234.937 61.9375 234.791 62.2539 234.58 62.5586C234.375 62.8574 234.105 63.1299 233.771 63.376C233.443 63.6162 233.056 63.8096 232.611 63.9561C232.166 64.0967 231.665 64.167 231.108 64.167ZM112.236 82V72.543H113.765V73.958H113.897C114.137 73.46 114.483 73.0732 114.934 72.7979C115.391 72.5166 115.969 72.376 116.666 72.376C117.726 72.376 118.541 72.6807 119.109 73.29C119.683 73.8936 119.97 74.7549 119.97 75.874V82H118.441V76.2432C118.441 75.3877 118.26 74.7549 117.896 74.3447C117.539 73.9346 116.982 73.7295 116.226 73.7295C115.728 73.7295 115.295 73.8379 114.926 74.0547C114.556 74.2715 114.269 74.5791 114.064 74.9775C113.865 75.3701 113.765 75.8447 113.765 76.4014V82H112.236ZM126.15 82.167C125.259 82.167 124.486 81.9707 123.83 81.5781C123.179 81.1797 122.675 80.6143 122.318 79.8818C121.966 79.1494 121.79 78.2822 121.79 77.2803V77.2627C121.79 76.249 121.966 75.3789 122.318 74.6523C122.675 73.9199 123.179 73.3574 123.83 72.9648C124.486 72.5723 125.259 72.376 126.15 72.376C127.052 72.376 127.829 72.5723 128.479 72.9648C129.129 73.3574 129.63 73.9199 129.982 74.6523C130.339 75.3789 130.518 76.249 130.518 77.2627V77.2803C130.518 78.2881 130.339 79.1582 129.982 79.8906C129.63 80.6172 129.129 81.1797 128.479 81.5781C127.829 81.9707 127.052 82.167 126.15 82.167ZM126.15 80.8135C126.748 80.8135 127.254 80.6729 127.67 80.3916C128.086 80.1104 128.403 79.709 128.62 79.1875C128.842 78.6602 128.954 78.0244 128.954 77.2803V77.2627C128.954 76.5127 128.842 75.874 128.62 75.3467C128.403 74.8193 128.086 74.418 127.67 74.1426C127.254 73.8672 126.748 73.7295 126.15 73.7295C125.558 73.7295 125.054 73.8672 124.638 74.1426C124.222 74.418 123.903 74.8193 123.68 75.3467C123.463 75.874 123.355 76.5127 123.355 77.2627V77.2803C123.355 78.0244 123.463 78.6602 123.68 79.1875C123.903 79.709 124.222 80.1104 124.638 80.3916C125.054 80.6729 125.558 80.8135 126.15 80.8135ZM137.085 82V68.79H138.614V73.9668H138.746C138.986 73.4629 139.332 73.0732 139.783 72.7979C140.24 72.5166 140.817 72.376 141.514 72.376C142.218 72.376 142.815 72.5137 143.307 72.7891C143.8 73.0586 144.175 73.457 144.432 73.9844C144.69 74.5059 144.819 75.1416 144.819 75.8916V82H143.29V76.252C143.29 75.3965 143.108 74.7637 142.745 74.3535C142.388 73.9375 141.831 73.7295 141.075 73.7295C140.571 73.7295 140.135 73.8379 139.765 74.0547C139.402 74.2715 139.118 74.5791 138.913 74.9775C138.714 75.376 138.614 75.8506 138.614 76.4014V82H137.085ZM147.149 82V72.543H148.678V82H147.149ZM147.922 70.7236C147.635 70.7236 147.389 70.6211 147.184 70.416C146.979 70.2051 146.876 69.959 146.876 69.6777C146.876 69.3848 146.979 69.1357 147.184 68.9307C147.389 68.7256 147.635 68.623 147.922 68.623C148.215 68.623 148.464 68.7256 148.669 68.9307C148.874 69.1357 148.977 69.3848 148.977 69.6777C148.977 69.959 148.874 70.2051 148.669 70.416C148.464 70.6211 148.215 70.7236 147.922 70.7236ZM154.348 82.167C153.645 82.167 153.024 82.0615 152.485 81.8506C151.945 81.6338 151.512 81.332 151.184 80.9453C150.861 80.5527 150.671 80.0957 150.612 79.5742H152.177C152.306 79.9727 152.555 80.292 152.924 80.5322C153.299 80.7725 153.791 80.8926 154.401 80.8926C154.822 80.8926 155.194 80.8311 155.517 80.708C155.845 80.5791 156.1 80.4062 156.281 80.1895C156.469 79.9727 156.563 79.7207 156.563 79.4336V79.416C156.563 79.0938 156.434 78.8213 156.176 78.5986C155.924 78.3701 155.508 78.1855 154.928 78.0449L153.46 77.6934C152.868 77.5527 152.382 77.3711 152.001 77.1484C151.62 76.9199 151.339 76.6416 151.157 76.3135C150.976 75.9795 150.885 75.5869 150.885 75.1357V75.127C150.885 74.5996 151.037 74.1279 151.342 73.7119C151.652 73.2959 152.071 72.9707 152.599 72.7363C153.132 72.4961 153.733 72.376 154.401 72.376C155.063 72.376 155.649 72.4814 156.158 72.6924C156.674 72.8975 157.087 73.1934 157.398 73.5801C157.714 73.9609 157.904 74.4062 157.969 74.916V74.9248H156.475H156.466C156.372 74.5439 156.147 74.2363 155.789 74.002C155.432 73.7676 154.966 73.6504 154.392 73.6504C154.017 73.6504 153.683 73.7119 153.39 73.835C153.103 73.9521 152.874 74.1162 152.704 74.3271C152.534 74.5322 152.449 74.7754 152.449 75.0566V75.0742C152.449 75.2852 152.505 75.4727 152.616 75.6367C152.728 75.8008 152.898 75.9443 153.126 76.0674C153.361 76.1904 153.662 76.2988 154.031 76.3926L155.49 76.7441C156.381 76.9609 157.043 77.2715 157.477 77.6758C157.91 78.0801 158.127 78.6221 158.127 79.3018V79.3193C158.127 79.876 157.96 80.3711 157.626 80.8047C157.298 81.2324 156.847 81.5664 156.273 81.8066C155.704 82.0469 155.063 82.167 154.348 82.167ZM163.313 82.0791C162.347 82.0791 161.643 81.8828 161.204 81.4902C160.77 81.0918 160.554 80.4443 160.554 79.5479V73.8086H159.068V72.543H160.554V70.0908H162.136V72.543H164.192V73.8086H162.136V79.1787C162.136 79.7295 162.241 80.125 162.452 80.3652C162.663 80.6055 163.012 80.7256 163.498 80.7256C163.633 80.7256 163.747 80.7227 163.841 80.7168C163.94 80.7109 164.057 80.7021 164.192 80.6904V81.9912C164.052 82.0146 163.908 82.0352 163.762 82.0527C163.615 82.0703 163.466 82.0791 163.313 82.0791ZM169.765 82.167C168.875 82.167 168.101 81.9707 167.445 81.5781C166.794 81.1797 166.291 80.6143 165.933 79.8818C165.582 79.1494 165.406 78.2822 165.406 77.2803V77.2627C165.406 76.249 165.582 75.3789 165.933 74.6523C166.291 73.9199 166.794 73.3574 167.445 72.9648C168.101 72.5723 168.875 72.376 169.765 72.376C170.668 72.376 171.444 72.5723 172.094 72.9648C172.745 73.3574 173.246 73.9199 173.597 74.6523C173.955 75.3789 174.133 76.249 174.133 77.2627V77.2803C174.133 78.2881 173.955 79.1582 173.597 79.8906C173.246 80.6172 172.745 81.1797 172.094 81.5781C171.444 81.9707 170.668 82.167 169.765 82.167ZM169.765 80.8135C170.363 80.8135 170.87 80.6729 171.286 80.3916C171.702 80.1104 172.018 79.709 172.235 79.1875C172.458 78.6602 172.569 78.0244 172.569 77.2803V77.2627C172.569 76.5127 172.458 75.874 172.235 75.3467C172.018 74.8193 171.702 74.418 171.286 74.1426C170.87 73.8672 170.363 73.7295 169.765 73.7295C169.173 73.7295 168.669 73.8672 168.253 74.1426C167.837 74.418 167.518 74.8193 167.295 75.3467C167.079 75.874 166.97 76.5127 166.97 77.2627V77.2803C166.97 78.0244 167.079 78.6602 167.295 79.1875C167.518 79.709 167.837 80.1104 168.253 80.3916C168.669 80.6729 169.173 80.8135 169.765 80.8135ZM170.336 71.2334H169.009L170.565 68.2627H172.367L170.336 71.2334ZM176.032 82V72.543H177.562V73.9492H177.694C177.875 73.4512 178.18 73.0645 178.608 72.7891C179.041 72.5137 179.574 72.376 180.207 72.376C180.354 72.376 180.497 72.3848 180.638 72.4023C180.784 72.4141 180.893 72.4258 180.963 72.4375V73.9229C180.811 73.8936 180.658 73.873 180.506 73.8613C180.36 73.8438 180.201 73.835 180.031 73.835C179.551 73.835 179.123 73.9316 178.748 74.125C178.379 74.3125 178.089 74.5791 177.878 74.9248C177.667 75.2705 177.562 75.6748 177.562 76.1377V82H176.032ZM182.44 82V72.543H183.97V82H182.44ZM183.214 70.7236C182.927 70.7236 182.681 70.6211 182.475 70.416C182.27 70.2051 182.168 69.959 182.168 69.6777C182.168 69.3848 182.27 69.1357 182.475 68.9307C182.681 68.7256 182.927 68.623 183.214 68.623C183.507 68.623 183.756 68.7256 183.961 68.9307C184.166 69.1357 184.268 69.3848 184.268 69.6777C184.268 69.959 184.166 70.2051 183.961 70.416C183.756 70.6211 183.507 70.7236 183.214 70.7236ZM190.254 82.167C189.376 82.167 188.611 81.9648 187.961 81.5605C187.31 81.1562 186.806 80.5879 186.449 79.8555C186.091 79.1172 185.913 78.2471 185.913 77.2451V77.2275C185.913 76.2432 186.088 75.3877 186.44 74.6611C186.797 73.9346 187.301 73.3721 187.952 72.9736C188.602 72.5752 189.367 72.376 190.246 72.376C191.013 72.376 191.675 72.5107 192.232 72.7803C192.789 73.0498 193.234 73.4131 193.568 73.8701C193.902 74.3213 194.116 74.8281 194.21 75.3906L194.218 75.4434H192.698L192.689 75.417C192.572 74.9482 192.305 74.5498 191.889 74.2217C191.473 73.8936 190.925 73.7295 190.246 73.7295C189.683 73.7295 189.194 73.873 188.778 74.1602C188.362 74.4473 188.04 74.8516 187.811 75.373C187.588 75.8945 187.477 76.5127 187.477 77.2275V77.2451C187.477 77.9717 187.591 78.6016 187.82 79.1348C188.048 79.668 188.371 80.0811 188.787 80.374C189.203 80.667 189.689 80.8135 190.246 80.8135C190.884 80.8135 191.406 80.6758 191.81 80.4004C192.214 80.1191 192.504 79.7178 192.68 79.1963L192.698 79.1348L194.21 79.126L194.192 79.2227C194.063 79.791 193.835 80.2979 193.506 80.7432C193.178 81.1885 192.745 81.5371 192.206 81.7891C191.667 82.041 191.016 82.167 190.254 82.167ZM199.879 82.167C198.989 82.167 198.215 81.9707 197.559 81.5781C196.908 81.1797 196.405 80.6143 196.047 79.8818C195.696 79.1494 195.52 78.2822 195.52 77.2803V77.2627C195.52 76.249 195.696 75.3789 196.047 74.6523C196.405 73.9199 196.908 73.3574 197.559 72.9648C198.215 72.5723 198.989 72.376 199.879 72.376C200.781 72.376 201.558 72.5723 202.208 72.9648C202.859 73.3574 203.36 73.9199 203.711 74.6523C204.069 75.3789 204.247 76.249 204.247 77.2627V77.2803C204.247 78.2881 204.069 79.1582 203.711 79.8906C203.36 80.6172 202.859 81.1797 202.208 81.5781C201.558 81.9707 200.781 82.167 199.879 82.167ZM199.879 80.8135C200.477 80.8135 200.984 80.6729 201.4 80.3916C201.816 80.1104 202.132 79.709 202.349 79.1875C202.572 78.6602 202.683 78.0244 202.683 77.2803V77.2627C202.683 76.5127 202.572 75.874 202.349 75.3467C202.132 74.8193 201.816 74.418 201.4 74.1426C200.984 73.8672 200.477 73.7295 199.879 73.7295C199.287 73.7295 198.783 73.8672 198.367 74.1426C197.951 74.418 197.632 74.8193 197.409 75.3467C197.193 75.874 197.084 76.5127 197.084 77.2627V77.2803C197.084 78.0244 197.193 78.6602 197.409 79.1875C197.632 79.709 197.951 80.1104 198.367 80.3916C198.783 80.6729 199.287 80.8135 199.879 80.8135Z" fill="#070907" fill-opacity="0.6"/>
<path d="M266.137 33.0398L269.734 30.5875L289.447 34.3169C289.856 34.3944 290.18 34.6147 290.419 34.9779C290.659 35.3309 290.741 35.7121 290.664 36.1215C290.584 36.5411 290.369 36.8662 290.018 37.0966C289.665 37.3372 289.284 37.4189 288.874 37.3414L266.137 33.0398ZM264.688 31.2866L260.702 32.0115C260.462 32.0508 260.267 31.9609 260.117 31.7418C259.978 31.5247 259.972 31.3061 260.098 31.0862L262.285 27.763L282.822 13.7742L285.209 17.295L264.688 31.2866ZM286.956 16.1307L284.538 12.6041L286.507 11.2751C286.992 10.9534 287.457 10.8188 287.903 10.8713C288.349 10.9239 288.726 11.1702 289.035 11.6103L289.518 12.3377C289.825 12.7881 289.928 13.2262 289.826 13.6522C289.724 14.0782 289.424 14.4614 288.925 14.8016L286.956 16.1307Z" fill="#070907" fill-opacity="0.6"/>
<path d="M33.8512 35.0859C33.2419 35.3814 32.5742 35.6009 31.8479 35.7441C31.1267 35.8736 30.2976 35.9441 29.3606 35.9558L12.3847 36.0792C11.7737 36.0997 11.2391 35.964 10.7811 35.6718C10.3281 35.3659 9.99152 34.9769 9.7714 34.5048C9.55129 34.0328 9.47183 33.5297 9.53303 32.9954C9.60367 32.4568 9.84106 31.9553 10.2452 31.491L21.2516 18.566C21.8672 17.8652 22.4586 17.2848 23.0258 16.825C23.5979 16.3513 24.193 15.9761 24.8111 15.6994C25.4203 15.4038 26.0903 15.1891 26.8209 15.0552C27.5472 14.912 28.3766 14.8298 29.3092 14.8087L46.2851 14.6853C46.9006 14.6742 47.4326 14.8168 47.8812 15.1134C48.3392 15.4055 48.6783 15.7876 48.8984 16.2596C49.1185 16.7317 49.1955 17.2417 49.1292 17.7898C49.068 18.3241 48.8332 18.8186 48.4246 19.2735L37.4182 32.1984C36.807 32.9087 36.2153 33.5007 35.6431 33.9744C35.0665 34.4387 34.4692 34.8091 33.8512 35.0859ZM32.5767 32.3528C33.0299 32.1415 33.4591 31.8666 33.8645 31.5281C34.2749 31.1759 34.7158 30.7289 35.1873 30.1872L45.1522 18.541C45.3209 18.3359 45.3612 18.1389 45.2732 17.9501C45.1895 17.7707 45.0149 17.6797 44.7494 17.6771L29.4226 17.8246C28.7001 17.8282 28.0743 17.8786 27.545 17.976C27.0252 18.069 26.5387 18.2211 26.0856 18.4324C25.6324 18.6438 25.2031 18.9186 24.7978 19.2571C24.3924 19.5955 23.9562 20.0403 23.4891 20.5914L13.5242 32.2377C13.3555 32.4428 13.313 32.635 13.3966 32.8144C13.4847 33.0032 13.6615 33.0989 13.927 33.1015L29.2539 32.954C29.9719 32.941 30.593 32.8927 31.1172 32.8092C31.6371 32.7162 32.1236 32.5641 32.5767 32.3528ZM20.243 42.4314L16.7894 35.0251L19.4942 33.7639L22.9478 41.1701C23.2824 41.8876 23.8703 42.4582 24.7115 42.882C25.5578 43.2919 26.5976 43.5254 27.831 43.5824C29.06 43.6299 30.4389 43.4812 31.9675 43.1362C33.5006 42.8006 35.1168 42.2366 36.8161 41.4442C38.5249 40.6474 39.9958 39.7718 41.2288 38.8175C42.4758 37.8683 43.476 36.9077 44.2295 35.9356C44.9881 34.9498 45.4777 34.0031 45.6982 33.0957C45.9238 32.1745 45.8693 31.3552 45.5347 30.6377L42.0811 23.2314L44.7859 21.9702L48.2394 29.3764C48.7633 30.4999 48.9143 31.711 48.6924 33.0098C48.4756 34.2947 47.9205 35.5938 47.0271 36.9068C46.1381 38.2293 44.9314 39.4989 43.4069 40.7155C41.8824 41.9321 40.0817 43.0247 38.0047 43.9932C35.9278 44.9617 33.9333 45.6388 32.0214 46.0246C30.1189 46.4061 28.3707 46.5144 26.7768 46.3497C25.1967 46.19 23.8448 45.7803 22.721 45.1204C21.5929 44.4512 20.7669 43.5548 20.243 42.4314ZM30.2089 27.1642C29.6803 27.4107 29.1352 27.5729 28.5739 27.6508C28.0176 27.7148 27.522 27.6873 27.0872 27.5682C26.6574 27.4353 26.3611 27.1942 26.1982 26.8449C26.0398 26.505 26.0499 26.1325 26.2288 25.7273C26.417 25.3177 26.7167 24.9251 27.1277 24.5495C27.5482 24.1695 28.0228 23.8563 28.5515 23.6097C29.0896 23.3588 29.6346 23.1966 30.1865 23.1232C30.7479 23.0453 31.2412 23.0681 31.6666 23.1916C32.092 23.315 32.3839 23.5467 32.5424 23.8866C32.7053 24.2359 32.6995 24.6178 32.5251 25.0325C32.3462 25.4377 32.0535 25.8328 31.6468 26.2178C31.2358 26.5934 30.7565 26.9088 30.2089 27.1642ZM23.5718 34.4485L20.9751 34.3146L27.8817 25.353L29.5823 26.5599L23.5718 34.4485ZM27.9417 49.2546L21.0015 34.3713L23.5718 34.4485L30.03 48.298L27.9417 49.2546ZM26.854 50.1755C26.5767 49.5808 26.5315 49.0156 26.7186 48.4802C26.9195 47.9497 27.322 47.5436 27.9262 47.2619L28.4927 46.9978C29.0874 46.7204 29.6478 46.6775 30.1739 46.8689C30.7137 47.0654 31.1224 47.4611 31.3997 48.0558L33.1694 51.851C33.4512 52.4552 33.4916 53.0225 33.2907 53.5529C33.1036 54.0884 32.7127 54.4948 32.1179 54.7722L31.5515 55.0363C30.9473 55.3181 30.3753 55.3607 29.8354 55.1642C29.3093 54.9727 28.9055 54.5749 28.6237 53.9707L26.854 50.1755Z" fill="#070907" fill-opacity="0.6"/>
<path d="M262.782 129.78C261.157 130.236 259.813 130.17 258.75 129.582C257.686 128.994 256.929 127.897 256.478 126.293L251.33 107.971C250.879 106.366 250.954 105.036 251.555 103.98C252.154 102.914 253.265 102.152 254.89 101.696L280.642 94.4591C282.277 93.9998 283.627 94.0693 284.694 94.6678C285.757 95.2562 286.514 96.3527 286.965 97.9572L292.114 116.279C292.564 117.883 292.489 119.214 291.888 120.27C291.287 121.326 290.169 122.084 288.534 122.543L262.782 129.78ZM262.134 126.781L287.54 119.641C288.232 119.447 288.713 119.117 288.983 118.652C289.249 118.177 289.281 117.578 289.078 116.856L284.074 99.0456C283.871 98.3236 283.533 97.8342 283.061 97.5774C282.585 97.3107 282.002 97.2745 281.31 97.4689L255.903 104.608C255.201 104.806 254.717 105.142 254.45 105.617C254.19 106.08 254.162 106.672 254.365 107.394L259.37 125.204C259.573 125.926 259.907 126.422 260.372 126.692C260.844 126.948 261.432 126.978 262.134 126.781ZM265.032 126.989C264.981 125.921 265.137 124.877 265.499 123.855C265.871 122.831 266.418 121.887 267.138 121.025C267.866 120.149 268.739 119.385 269.756 118.731C270.773 118.077 271.909 117.574 273.162 117.222C274.426 116.867 275.662 116.704 276.871 116.732C278.08 116.76 279.218 116.959 280.285 117.33C281.35 117.691 282.302 118.213 283.144 118.897C283.985 119.58 284.667 120.389 285.189 121.325L265.032 126.989ZM272.482 114.8C271.516 115.061 270.578 115.054 269.668 114.779C268.758 114.505 267.959 114.01 267.271 113.295C266.583 112.579 266.083 111.686 265.771 110.616C265.492 109.623 265.461 108.647 265.679 107.688C265.896 106.729 266.326 105.889 266.967 105.167C267.608 104.446 268.405 103.952 269.358 103.684C270.311 103.416 271.243 103.425 272.156 103.709C273.08 103.991 273.884 104.484 274.569 105.19C275.264 105.892 275.751 106.74 276.03 107.733C276.332 108.806 276.372 109.834 276.15 110.816C275.938 111.795 275.515 112.639 274.881 113.347C274.247 114.055 273.447 114.54 272.482 114.8Z" fill="#070907" fill-opacity="0.6"/>
<path d="M43.603 110.719C43.8579 110.838 44.0307 111.022 44.1214 111.271C44.2121 111.52 44.198 111.772 44.0791 112.027C43.9603 112.282 43.7741 112.459 43.5205 112.56C43.2713 112.65 43.0193 112.636 42.7644 112.517L32.3985 107.684C32.1341 107.56 31.9519 107.372 31.8518 107.118C31.7655 106.86 31.7818 106.603 31.9006 106.348C32.0195 106.093 32.2035 105.92 32.4527 105.83C32.7113 105.743 32.9728 105.762 33.2371 105.885L43.603 110.719ZM41.3909 115.463C41.6458 115.582 41.8164 115.77 41.9027 116.029C41.9889 116.288 41.9727 116.544 41.8538 116.799C41.7393 117.045 41.5575 117.213 41.3084 117.304C41.0592 117.394 40.8071 117.38 40.5522 117.261L30.1863 112.428C29.922 112.304 29.7398 112.116 29.6396 111.862C29.5489 111.613 29.5608 111.366 29.6753 111.12C29.7941 110.866 29.9804 110.688 30.2339 110.588C30.497 110.492 30.7606 110.506 31.025 110.629L41.3909 115.463ZM24.767 118.245C23.2471 117.536 22.2827 116.609 21.874 115.465C21.4652 114.32 21.6174 112.983 22.3306 111.454L32.2951 90.0849C33.0039 88.5649 33.928 87.5936 35.0676 87.171C36.2115 86.739 37.5434 86.8774 39.0634 87.5861L45.889 90.769C46.4838 91.0463 46.9832 91.3309 47.3873 91.6228C47.7958 91.9052 48.1382 92.2431 48.4146 92.6363C48.6954 93.0201 48.9394 93.5074 49.1466 94.0983L53.0474 105.106C53.2691 105.715 53.3935 106.262 53.4207 106.746C53.4618 107.225 53.4122 107.713 53.272 108.211C53.1362 108.699 52.9143 109.274 52.6061 109.935L46.6168 122.779C45.908 124.299 44.9839 125.27 43.8444 125.693C42.7004 126.125 41.3685 125.986 39.8485 125.277L24.767 118.245ZM26.2945 115.561L40.9228 122.382C41.612 122.703 42.208 122.769 42.7107 122.578C43.2135 122.387 43.6167 121.966 43.9205 121.315L49.6522 109.023L42.0194 105.464C41.0093 104.992 40.3707 104.39 40.1036 103.656C39.846 102.927 39.9528 102.057 40.4238 101.047L44.0425 93.287L38.0099 90.474C37.3207 90.1526 36.7225 90.0921 36.2154 90.2923C35.7082 90.4926 35.3028 90.9184 34.999 91.5698L25.1996 112.585C24.8958 113.236 24.8324 113.816 25.0094 114.324C25.1864 114.831 25.6147 115.244 26.2945 115.561ZM43.4309 103.139L50.4123 106.395L46.314 94.8118L42.9991 101.921C42.8627 102.213 42.825 102.454 42.8861 102.644C42.9566 102.838 43.1382 103.003 43.4309 103.139Z" fill="#070907" fill-opacity="0.6"/>
</svg>
